<svg xmlns="http://www.w3.org/2000/svg" xmlns:xlink="http://www.w3.org/1999/xlink" width="1080" zoomAndPan="magnify" viewBox="0 0 810 1439.999935" height="1920" preserveAspectRatio="xMidYMid meet" version="1.0"><defs><clipPath id="61ad69c975"><path d="M 255 537 L 382 537 L 382 909 L 255 909 Z M 255 537 " clip-rule="nonzero"/></clipPath><clipPath id="3ab032e1bc"><path d="M 249.597656 540.75 L 532.324219 519.800781 L 560.421875 899.011719 L 277.695312 919.960938 Z M 249.597656 540.75 " clip-rule="nonzero"/></clipPath><clipPath id="398cff17ab"><path d="M 249.597656 540.75 L 532.324219 519.800781 L 560.421875 899.011719 L 277.695312 919.960938 Z M 249.597656 540.75 " clip-rule="nonzero"/></clipPath><clipPath id="792825f949"><path d="M 436 593 L 555 593 L 555 882 L 436 882 Z M 436 593 " clip-rule="nonzero"/></clipPath><clipPath id="7c0b255e6c"><path d="M 249.597656 540.75 L 532.324219 519.800781 L 560.421875 899.011719 L 277.695312 919.960938 Z M 249.597656 540.75 " clip-rule="nonzero"/></clipPath><clipPath id="9033d98552"><path d="M 249.597656 540.75 L 532.324219 519.800781 L 560.421875 899.011719 L 277.695312 919.960938 Z M 249.597656 540.75 " clip-rule="nonzero"/></clipPath><clipPath id="a0aa03f399"><path d="M 376 649 L 452 649 L 452 892 L 376 892 Z M 376 649 " clip-rule="nonzero"/></clipPath><clipPath id="282866ce92"><path d="M 249.597656 540.75 L 532.324219 519.800781 L 560.421875 899.011719 L 277.695312 919.960938 Z M 249.597656 540.75 " clip-rule="nonzero"/></clipPath><clipPath id="b13343d00a"><path d="M 249.597656 540.75 L 532.324219 519.800781 L 560.421875 899.011719 L 277.695312 919.960938 Z M 249.597656 540.75 " clip-rule="nonzero"/></clipPath></defs><g clip-path="url(#61ad69c975)"><g clip-path="url(#3ab032e1bc)"><g clip-path="url(#398cff17ab)"><path fill="#de8554" d="M 295.167969 557.597656 C 299.71875 556 311.386719 555.433594 311.386719 555.433594 C 311.386719 555.433594 315.261719 550.699219 317.195312 549.816406 C 319.132812 548.929688 327.445312 544.089844 333.195312 547.667969 C 333.195312 547.667969 334.621094 559.9375 336.390625 563.808594 C 338.160156 567.679688 339.816406 570.003906 343.316406 573.226562 C 346.816406 576.453125 350.171875 576.722656 350.019531 579.699219 C 349.871094 582.671875 351.859375 591.492188 349.753906 593.132812 C 347.652344 594.769531 344.117188 594.066406 344.117188 594.066406 C 344.117188 594.066406 345.453125 585.074219 345.285156 582.789062 C 345.113281 580.503906 342.230469 574.566406 342.230469 574.566406 C 342.230469 574.566406 341.886719 586.96875 341.429688 590.785156 C 340.964844 594.523438 344.226562 598.507812 336.761719 601.800781 C 329.296875 605.097656 326.734375 600.542969 326.734375 600.542969 C 326.734375 600.542969 327.070312 598.074219 327.441406 593.082031 C 327.8125 588.085938 323.289062 574.042969 323.734375 570.007812 C 324.175781 565.972656 319.59375 554.160156 315.46875 557.503906 C 318.601562 558.753906 319.5 562.910156 319.515625 566.097656 C 319.449219 569.214844 321.648438 582.910156 323.75 588.238281 C 325.847656 593.570312 324.203125 600.359375 318.859375 604.242188 C 313.511719 608.121094 306.417969 605.386719 306.417969 605.386719 C 306.417969 605.386719 308.132812 601.550781 308.359375 598.570312 C 308.65625 595.585938 299.234375 575.457031 294.921875 571.253906 C 290.605469 567.054688 283.609375 569.648438 283.609375 569.648438 C 283.609375 569.648438 283.761719 569.710938 284.375 569.960938 C 285.363281 570.332031 287.414062 570.996094 291.714844 572.011719 C 298.511719 573.730469 301.253906 586.71875 303.164062 592.507812 C 305.078125 598.296875 303.714844 602.917969 301.722656 606.027344 C 299.730469 609.140625 296.113281 617.339844 291.894531 617.429688 C 287.675781 617.519531 283.953125 614.3125 283.40625 609.90625 C 282.855469 605.5 285.125 603.109375 282.15625 600.066406 C 279.191406 597.027344 275.808594 588.382812 275.808594 588.382812 C 275.289062 591.386719 275.417969 596.121094 275.417969 596.121094 C 271.179688 595.914062 262.683594 592.320312 262.683594 592.320312 C 266.199219 599.765625 279.375 602.496094 279.375 602.496094 C 279.375 602.496094 277.179688 605.921875 273.164062 605.699219 C 269.144531 605.476562 265.332031 607.019531 262.179688 608.515625 C 262.179688 608.515625 276 610.972656 279.058594 608.226562 C 279.058594 608.226562 279.054688 611.191406 279.585938 615.378906 C 280.117188 619.5625 289.960938 621.351562 299.757812 620.554688 C 309.558594 619.753906 309.324219 617.621094 314.171875 620.003906 C 319.015625 622.386719 325.414062 616.726562 329.222656 615.109375 C 333.105469 613.488281 337.621094 608.410156 342.871094 606.242188 C 348.121094 604.074219 350.660156 608.332031 352.003906 609.492188 C 353.351562 610.652344 357.914062 619.207031 357.914062 619.207031 C 357.914062 619.207031 357.726562 618.703125 357.371094 617.914062 C 355.851562 614.394531 351.792969 604.617188 351.441406 601.902344 C 350.859375 598.015625 352.511719 594.335938 353.714844 589.578125 C 354.921875 584.820312 353.460938 582.109375 352.984375 579.699219 C 352.503906 577.214844 349.4375 577.8125 342.578125 569.28125 C 335.71875 560.746094 335.265625 554.628906 335.054688 547.75 C 334.78125 539.101562 341.417969 537.644531 341.417969 537.644531 C 341.417969 537.644531 350.136719 542.261719 354.535156 546.605469 C 358.933594 550.949219 374.453125 555.355469 378.4375 563.140625 C 382.425781 570.921875 380.453125 594.339844 381.144531 603.628906 C 381.832031 612.914062 374.597656 624.347656 366.566406 637.984375 C 358.535156 651.625 343.023438 672.339844 342.3125 679.730469 C 341.601562 687.121094 353.296875 752.957031 355.53125 762.128906 C 357.769531 771.304688 369.851562 821.324219 373.144531 840.792969 C 376.441406 860.265625 377.183594 878.292969 374.847656 892.769531 C 374.847656 892.769531 344.296875 911.5625 324.515625 908.65625 C 304.734375 905.75 290.839844 899.292969 290.839844 899.292969 C 290.839844 899.292969 289.65625 891.300781 289.921875 890.910156 C 290.191406 890.519531 286.113281 860.511719 284.480469 830.464844 C 282.847656 800.421875 287.164062 765.640625 286.539062 753.234375 C 285.917969 740.828125 282.601562 700.089844 280.660156 690.894531 C 278.71875 681.699219 269.816406 670.574219 263.800781 656.421875 C 257.789062 642.265625 256.878906 630.992188 256.125 624.824219 C 255.371094 618.652344 256.515625 588.109375 258.539062 582.398438 C 260.5625 576.691406 265.796875 574.300781 276.363281 570.851562 C 282 568.949219 290.617188 559.195312 295.167969 557.597656 Z M 295.167969 557.597656 " fill-opacity="1" fill-rule="nonzero"/></g></g></g><g clip-path="url(#792825f949)"><g clip-path="url(#7c0b255e6c)"><g clip-path="url(#9033d98552)"><path fill="#ffffff" d="M 444.820312 613.808594 C 444.601562 610.859375 443.375 603.316406 448.339844 600.28125 C 453.296875 597.171875 460.246094 596.953125 463.890625 597.125 C 465.976562 597.269531 469.902344 597.199219 472.710938 597.140625 C 469.421875 598.71875 466.140625 600.441406 465.09375 601.335938 C 462.65625 603.441406 456.375 609.691406 456.472656 611.015625 C 456.570312 612.34375 458.269531 621.257812 458.269531 621.257812 C 458.269531 621.257812 453.695312 618.558594 452.96875 618.761719 C 452.457031 618.875 448.046875 619.347656 444.953125 619.578125 C 444.910156 618.023438 444.953125 615.574219 444.820312 613.808594 Z M 548.628906 822.53125 C 545.863281 809.171875 537.261719 736.140625 535.664062 726.546875 C 534.0625 716.957031 532.179688 697.53125 531.765625 691.929688 C 531.347656 686.328125 533.789062 676.214844 532.222656 658.097656 C 530.65625 639.984375 531.765625 636.9375 530.003906 634.175781 C 528.238281 631.34375 526.230469 629.269531 526.230469 629.269531 C 525.140625 620.527344 523.664062 618.636719 522.464844 614.425781 C 521.261719 610.21875 516.703125 606.703125 515.125 606.375 C 513.542969 606.046875 511.070312 606.675781 511.070312 606.675781 C 511.070312 606.675781 508.332031 596.722656 504.964844 594.304688 C 501.59375 591.8125 496.382812 594.496094 493.238281 594.0625 C 490.539062 593.667969 482.203125 595.175781 478.078125 596.519531 L 467.390625 602.351562 C 467.390625 602.351562 459.023438 609.417969 458.160156 611.78125 C 457.296875 614.140625 461.394531 622.4375 461.394531 622.4375 C 461.394531 622.4375 466.703125 625.082031 466.757812 625.820312 C 466.8125 626.554688 467.167969 623.34375 467.5 621.835938 C 467.835938 620.328125 472.050781 616.234375 474.714844 615.148438 C 477.375 614.0625 488.289062 609.324219 490.542969 608.714844 C 492.792969 608.101562 497.261719 603.398438 497.261719 603.398438 C 497.261719 603.398438 496.703125 607.8125 494.914062 608.6875 C 493.199219 609.554688 480.980469 615.722656 477.273438 616.664062 C 473.554688 617.53125 468.769531 621.964844 468.996094 624.984375 C 469.21875 628.007812 471.59375 638.058594 471.59375 638.058594 C 471.59375 638.058594 474.296875 650.53125 476.15625 652.617188 C 477.945312 654.785156 483.582031 654.8125 483.582031 654.8125 C 483.582031 654.8125 484.023438 638.769531 483.566406 634.578125 C 483.105469 630.386719 486.402344 629.847656 490.683594 628.640625 C 494.96875 627.433594 506.90625 625.511719 509.433594 625.621094 C 512.035156 625.726562 515.3125 627.925781 515.3125 627.925781 C 515.3125 627.925781 511.507812 627.617188 507.90625 626.996094 C 504.308594 626.445312 491.863281 629.515625 488.277344 632.152344 C 484.699219 634.867188 484.492188 650.074219 484.976562 652.632812 C 485.460938 655.191406 491.679688 656.0625 493.0625 657.738281 C 494.375 659.421875 497.886719 659.828125 500.144531 659.289062 C 502.40625 658.828125 504.355469 659.125 504.953125 657.15625 C 505.546875 655.183594 503.613281 651.101562 501.835938 652.125 C 500.132812 653.140625 495.964844 651.890625 495.964844 651.890625 C 495.964844 651.890625 499.089844 651.066406 500.046875 649.960938 C 501 648.851562 499.832031 647.085938 498.332031 644.824219 C 496.824219 642.488281 497.304688 640.972656 497.304688 640.972656 C 497.304688 640.972656 500.449219 644.371094 502.074219 646.324219 C 503.703125 648.28125 507.328125 648.234375 509.734375 647.683594 C 512.144531 647.210938 513.390625 648.007812 515.644531 648.433594 C 517.972656 648.851562 520.890625 648.191406 520.890625 648.191406 C 518.019531 650.480469 509.984375 650.039062 508.804688 650.125 C 507.625 650.214844 506.753906 653.464844 507.378906 656.902344 C 507.929688 660.34375 516.203125 661.953125 516.203125 661.953125 C 511.296875 664.765625 505.964844 659.824219 505.964844 659.824219 C 505.964844 659.824219 504.945312 666.050781 502.414062 666.902344 C 499.878906 667.683594 496.742188 665.398438 492.859375 663.980469 C 488.980469 662.636719 477.738281 662.953125 474.609375 660.738281 C 470.929688 658.121094 466.648438 650.359375 464.257812 649.054688 C 461.863281 647.75 451.460938 647.40625 449.648438 646.949219 C 447.835938 646.492188 444.6875 641.015625 444.6875 641.015625 C 448.28125 644.53125 457.285156 644.011719 462.488281 643.179688 C 467.6875 642.351562 469.695312 638.421875 470.546875 635.914062 C 471.398438 633.40625 469.011719 629.210938 466.289062 627.484375 C 463.566406 625.757812 457.054688 622.90625 454.527344 621.757812 C 452.070312 620.605469 445.097656 621.566406 443.238281 622.449219 C 440.199219 624.453125 436.695312 629.15625 436.257812 631.265625 C 435.773438 633.746094 438 645.8125 442.183594 650.246094 C 446.367188 654.675781 448.296875 659.722656 453.304688 666.316406 C 458.316406 672.914062 462.351562 675.355469 466.886719 679.542969 C 471.492188 683.722656 473.449219 692.101562 475.347656 696.703125 C 477.242188 701.304688 481.304688 716.125 481.921875 730.457031 C 482.546875 744.863281 484.574219 824.238281 485.125 831.683594 C 485.671875 839.054688 485.714844 863.65625 485.714844 863.65625 C 489.847656 867.425781 494.839844 876.765625 509.484375 880.351562 C 524.207031 884.003906 552.75 877.144531 552.75 877.144531 C 558.378906 872.058594 551.398438 835.886719 548.628906 822.53125 Z M 548.628906 822.53125 " fill-opacity="1" fill-rule="nonzero"/></g></g></g><g clip-path="url(#a0aa03f399)"><g clip-path="url(#282866ce92)"><g clip-path="url(#b13343d00a)"><path fill="#875e53" d="M 427.015625 671.601562 C 426.839844 669.242188 427.039062 663.890625 427.679688 661.546875 C 428.035156 660.335938 428.738281 657.835938 429.324219 655.71875 C 429.679688 655.542969 429.96875 655.449219 430.332031 655.347656 C 430.128906 657.585938 429.988281 659.671875 429.984375 660.636719 C 429.941406 663.082031 431.292969 668.320312 432.1875 669.367188 C 433.078125 670.410156 433.496094 678.015625 433.722656 680.074219 C 433.949219 682.132812 433.957031 687.246094 432.203125 687.597656 C 430.449219 687.949219 428.539062 685.125 428.15625 683.96875 C 427.789062 683.03125 427.191406 673.960938 427.015625 671.601562 Z M 414.992188 661.375 C 414.875 663.753906 414.070312 670.929688 414.175781 673.367188 C 414.285156 675.804688 415.054688 686.199219 415.664062 688.453125 C 416.277344 690.703125 419.140625 690.34375 421.394531 688.769531 C 423.652344 687.191406 426.234375 685.074219 426.277344 682.625 C 426.316406 680.175781 425.503906 669.195312 425.984375 665.675781 C 426.324219 663.277344 426.832031 659.089844 427.160156 656.546875 C 427.007812 656.484375 426.855469 656.417969 426.550781 656.292969 C 425.554688 655.847656 420.253906 653.351562 418.171875 654.246094 C 416.734375 654.871094 415.535156 655.703125 414.429688 656.746094 C 414.691406 658.285156 415.046875 660.109375 414.992188 661.375 Z M 400.925781 664.566406 C 401.492188 666.230469 402.492188 681.71875 403.378906 684.691406 C 404.269531 687.664062 403.738281 694.523438 405.210938 695.378906 C 406.679688 696.230469 408.773438 696.449219 411.175781 694.863281 C 413.503906 693.28125 414.652344 691.789062 414.296875 689.960938 C 413.941406 688.207031 412.816406 675.988281 412.730469 673.847656 C 412.644531 671.703125 412.652344 660.808594 412.652344 660.808594 L 412.296875 658.015625 C 411.917969 657.898438 411.460938 657.707031 410.917969 657.378906 C 409.683594 656.730469 405.195312 656.171875 403.351562 657.273438 C 402.070312 658.035156 400.550781 660.519531 399.695312 661.988281 C 400.214844 662.988281 400.722656 663.839844 400.925781 664.566406 Z M 451.042969 678.789062 C 450.578125 676.527344 450.429688 667.496094 447.871094 663.980469 C 445.3125 660.460938 435.933594 649.890625 435.933594 649.890625 C 435.433594 650.152344 435.011719 650.480469 434.519531 650.8125 C 432.171875 653.136719 431.179688 660.769531 431.386719 663.570312 C 431.601562 666.445312 435.816406 671.320312 436.1875 673.367188 C 436.5625 675.414062 435.722656 686.074219 436.449219 687.875 C 437.175781 689.675781 439.027344 691.6875 439.027344 691.6875 C 439.027344 691.6875 436.390625 692.105469 435.0625 691.164062 C 433.734375 690.226562 427.703125 689.855469 426.335938 690.402344 C 424.964844 690.949219 417.351562 695.21875 415.585938 696.386719 C 413.820312 697.554688 407.78125 700.078125 404.667969 700.085938 C 401.558594 700.09375 397.6875 698.898438 397.039062 698.132812 C 396.390625 697.363281 392.238281 695.375 391.132812 694.417969 C 390.023438 693.464844 389.539062 689.941406 389.796875 687.402344 C 390.050781 684.863281 389.578125 684.453125 389.242188 682.921875 C 388.910156 681.464844 385.265625 680.253906 385.265625 680.253906 C 386.425781 678.90625 389.199219 680.332031 389.199219 680.332031 L 390.714844 680.8125 C 390.714844 680.8125 388.382812 675.351562 388.382812 674.316406 C 388.453125 673.273438 389.347656 671.355469 389.347656 671.355469 C 389.347656 671.355469 392.148438 681.152344 392.101562 682.488281 C 392.046875 683.753906 392.074219 690.125 394.296875 692.109375 C 396.523438 694.167969 400 693.09375 400 693.09375 C 400 693.09375 401.75 685.703125 401.496094 683.277344 C 400.804688 677.917969 400.148438 665.070312 398.984375 663.375 C 398.402344 662.53125 392.285156 662.984375 390.433594 664.011719 C 388.65625 665.03125 384.648438 672.960938 382.0625 679.082031 C 379.558594 685.273438 374.601562 704.390625 378.09375 716.507812 C 381.585938 728.625 382.75 789.386719 382.472656 810.605469 C 382.191406 831.824219 381.851562 888.25 381.851562 888.25 C 381.851562 888.25 406.492188 892.722656 415.160156 891.710938 C 423.910156 890.765625 444.890625 883.800781 446.78125 882.328125 C 446.78125 882.328125 443.726562 872.105469 443.78125 871.878906 C 443.839844 871.652344 438.734375 834.75 438.734375 834.75 C 438.734375 834.75 428.140625 773.796875 427.925781 770.921875 C 427.714844 768.046875 426.664062 728.84375 427.160156 727.546875 C 427.65625 726.25 433.808594 718.234375 436.257812 715.3125 C 438.710938 712.386719 450.085938 698.871094 451.121094 697.832031 C 452.164062 696.9375 451.507812 681.050781 451.042969 678.789062 Z M 451.042969 678.789062 " fill-opacity="1" fill-rule="nonzero"/></g></g></g></svg>