<svg xmlns="http://www.w3.org/2000/svg" xmlns:xlink="http://www.w3.org/1999/xlink" width="1080" zoomAndPan="magnify" viewBox="0 0 810 1439.999935" height="1920" preserveAspectRatio="xMidYMid meet" version="1.0"><defs><clipPath id="c8be084b34"><path d="M 222 576 L 588.566406 576 L 588.566406 863.863281 L 222 863.863281 Z M 222 576 " clip-rule="nonzero"/></clipPath></defs><g clip-path="url(#c8be084b34)"><path fill="#2b7a78" d="M 504.015625 632.316406 L 505.964844 632.914062 C 506.117188 633.515625 504.914062 633.515625 504.464844 633.367188 Z M 504.316406 627.960938 C 506.117188 629.011719 505.214844 629.011719 507.46875 630.0625 C 507.617188 630.664062 506.71875 630.964844 505.964844 630.8125 C 506.417969 631.113281 505.367188 631.714844 506.566406 632.164062 C 508.21875 631.5625 508.367188 630.664062 507.167969 629.460938 C 507.617188 629.3125 508.066406 629.613281 508.519531 629.613281 C 507.617188 628.863281 506.117188 627.808594 504.316406 627.960938 Z M 544.101562 591.027344 C 544.253906 591.175781 544.402344 591.175781 544.550781 591.175781 Z M 574.582031 590.425781 C 574.730469 590.425781 575.03125 590.277344 575.03125 590.125 C 574.878906 590.125 574.730469 590.277344 574.582031 590.425781 Z M 575.480469 592.828125 C 575.480469 592.675781 575.632812 592.675781 575.632812 592.675781 C 575.332031 592.828125 575.179688 592.976562 575.480469 592.828125 Z M 544.550781 591.175781 L 545.601562 591.476562 C 545.453125 590.726562 545.003906 591.027344 544.550781 591.175781 Z M 505.664062 620.605469 C 505.664062 620.902344 505.816406 621.054688 505.964844 621.355469 C 505.964844 621.203125 505.964844 620.902344 505.964844 620.753906 C 505.816406 620.605469 505.816406 620.605469 505.664062 620.605469 Z M 532.691406 599.433594 L 532.542969 599.585938 C 532.542969 599.734375 532.691406 600.035156 532.839844 600.335938 Z M 523.382812 605.140625 C 523.832031 605.738281 523.832031 606.039062 523.832031 606.339844 C 524.132812 606.492188 524.433594 606.789062 524.734375 607.089844 C 524.882812 606.789062 523.832031 605.589844 523.382812 605.140625 Z M 539.449219 595.679688 C 539.597656 595.832031 539.746094 596.132812 539.746094 596.132812 C 539.746094 595.980469 539.597656 595.832031 539.449219 595.679688 Z M 514.675781 597.632812 C 514.523438 597.632812 514.523438 597.632812 514.375 597.78125 C 514.675781 597.78125 514.675781 597.78125 514.675781 597.632812 Z M 504.164062 612.347656 L 504.164062 612.195312 L 503.414062 611.59375 Z M 571.878906 597.183594 C 571.878906 596.882812 571.726562 597.03125 571.878906 597.183594 Z M 515.125 671.351562 C 516.777344 671.953125 514.675781 673.902344 516.925781 674.503906 C 516.476562 674.054688 516.777344 671.5 515.125 671.351562 Z M 505.964844 620.304688 C 505.964844 620.152344 505.964844 620.003906 506.117188 619.851562 C 505.964844 620.003906 505.964844 620.152344 505.964844 620.304688 Z M 563.921875 619.554688 C 563.769531 619.554688 563.621094 619.402344 563.167969 619.402344 C 563.46875 619.402344 563.769531 619.554688 563.921875 619.554688 Z M 572.929688 604.089844 L 572.476562 604.386719 C 572.777344 604.238281 572.929688 604.238281 572.929688 604.089844 Z M 560.316406 628.710938 C 560.167969 628.710938 560.015625 628.863281 560.015625 629.160156 C 560.167969 629.160156 560.167969 629.160156 560.167969 629.160156 C 560.167969 629.011719 560.167969 628.863281 560.316406 628.710938 Z M 560.316406 628.710938 C 560.316406 628.710938 560.46875 628.710938 560.46875 628.5625 C 560.46875 628.710938 560.316406 628.710938 560.316406 628.710938 Z M 555.0625 636.820312 C 555.210938 636.820312 555.363281 636.820312 555.511719 636.820312 C 555.511719 636.667969 555.511719 636.667969 555.664062 636.519531 Z M 481.792969 578.265625 C 482.242188 578.714844 482.542969 579.164062 482.695312 579.617188 C 482.242188 578.566406 484.046875 577.664062 481.792969 578.265625 Z M 505.964844 620.304688 C 505.964844 620.453125 505.964844 620.605469 505.964844 620.753906 C 506.265625 620.902344 506.417969 620.902344 506.566406 620.902344 C 506.117188 620.605469 505.964844 620.453125 505.964844 620.304688 Z M 571.425781 636.066406 L 570.375 637.417969 C 570.675781 636.96875 571.128906 636.519531 571.425781 636.066406 Z M 469.332031 650.480469 L 468.882812 650.332031 C 469.03125 650.332031 469.183594 650.480469 469.332031 650.480469 Z M 567.675781 641.625 C 567.074219 641.472656 566.621094 641.625 566.171875 641.773438 C 566.171875 641.921875 566.324219 642.074219 566.472656 642.222656 Z M 471.882812 655.285156 C 471.734375 655.285156 471.585938 655.136719 471.433594 655.136719 C 471.433594 655.285156 471.734375 655.285156 471.882812 655.285156 Z M 588.542969 585.472656 C 588.542969 585.621094 588.542969 585.621094 588.695312 585.769531 C 588.695312 585.921875 588.542969 586.070312 588.394531 586.222656 C 588.09375 586.820312 587.792969 587.273438 586.441406 587.421875 C 585.390625 589.375 585.539062 590.574219 585.691406 591.777344 C 585.992188 592.976562 586.292969 594.480469 585.992188 596.429688 C 586.140625 595.832031 585.691406 595.980469 585.242188 595.832031 C 584.339844 597.632812 584.941406 599.285156 585.691406 600.484375 C 585.089844 600.035156 584.941406 599.734375 584.488281 599.433594 C 583.890625 601.085938 585.390625 600.785156 585.390625 602.886719 C 584.640625 602.136719 584.1875 602.136719 583.738281 602.4375 C 584.488281 602.585938 584.941406 603.1875 585.089844 603.636719 C 581.335938 600.785156 582.6875 605.140625 579.683594 603.039062 C 580.585938 603.488281 581.335938 606.941406 583.289062 606.789062 L 583.136719 606.191406 C 584.339844 606.492188 583.589844 607.089844 583.4375 607.542969 C 583.289062 607.242188 583.289062 606.789062 582.988281 606.789062 C 583.289062 609.945312 581.035156 612.046875 580.734375 615.347656 C 580.4375 614.898438 580.136719 613.398438 579.535156 613.996094 C 577.582031 616.550781 578.933594 619.101562 578.484375 622.40625 C 575.929688 621.203125 579.535156 619.101562 577.28125 617.902344 C 576.53125 621.203125 575.78125 624.507812 575.179688 628.5625 C 570.976562 627.660156 574.878906 632.613281 570.828125 632.765625 C 572.179688 633.367188 571.878906 634.566406 571.277344 635.617188 C 570.527344 634.71875 569.777344 635.769531 569.324219 635.015625 C 569.925781 636.667969 568.574219 639.519531 566.324219 637.871094 C 568.273438 639.519531 564.820312 639.671875 565.871094 641.472656 C 564.21875 642.074219 564.671875 644.175781 563.019531 645.078125 C 564.519531 645.527344 562.871094 646.726562 562.71875 647.480469 C 562.71875 647.328125 562.71875 647.027344 562.570312 647.027344 C 561.066406 646.578125 562.269531 649.28125 561.066406 649.582031 C 560.316406 649.582031 560.015625 648.53125 559.417969 648.980469 C 560.316406 649.730469 559.714844 652.734375 558.066406 652.433594 C 558.363281 652.132812 557.914062 651.683594 557.765625 651.234375 C 557.015625 653.632812 555.363281 655.285156 553.710938 657.089844 C 552.058594 658.890625 550.40625 660.390625 549.507812 662.945312 L 548.757812 660.992188 C 545.003906 661.292969 549.65625 664.746094 547.855469 666.097656 C 542.449219 669.851562 535.695312 671.953125 531.488281 676.605469 C 531.488281 677.355469 532.089844 677.054688 532.691406 677.65625 C 532.089844 677.808594 531.039062 676.605469 531.039062 677.808594 L 531.789062 678.558594 C 529.839844 678.257812 528.488281 679.757812 526.984375 681.261719 C 525.484375 682.613281 523.984375 683.664062 521.882812 682.3125 C 521.128906 683.8125 520.078125 684.113281 518.878906 684.5625 C 517.675781 685.015625 516.625 685.613281 515.726562 687.417969 C 514.375 687.117188 515.875 685.3125 514.523438 685.765625 L 513.625 687.265625 L 513.171875 688.015625 L 512.273438 688.917969 L 512.421875 688.617188 C 511.222656 691.019531 507.917969 691.769531 505.214844 692.070312 C 502.511719 692.371094 500.261719 692.371094 497.859375 693.722656 C 497.558594 693.421875 497.410156 693.121094 497.109375 692.820312 L 497.257812 692.820312 C 497.707031 691.921875 497.707031 689.820312 497.257812 689.367188 C 496.808594 689.667969 496.957031 690.570312 496.808594 691.769531 C 495.457031 690.269531 494.554688 688.917969 493.804688 687.714844 C 493.054688 686.515625 492.453125 685.3125 491.253906 683.363281 C 493.054688 684.261719 491.253906 681.261719 492.453125 680.511719 C 491.253906 680.511719 491.253906 681.5625 489.902344 680.808594 C 488.851562 679.308594 489 677.054688 488.550781 675.40625 C 487.046875 675.554688 486.898438 674.65625 485.546875 675.554688 C 484.195312 673.753906 482.996094 673.152344 481.34375 670.902344 L 481.792969 670.449219 C 479.691406 671.050781 481.191406 667.898438 479.992188 668.199219 C 480.59375 667.898438 481.042969 667.898438 481.492188 667.449219 L 480.140625 666.847656 C 481.042969 666.996094 482.84375 666.097656 482.394531 665.046875 C 480.59375 665.046875 481.792969 665.945312 480.441406 666.097656 L 481.792969 664.746094 C 481.191406 664.144531 479.242188 665.34375 479.390625 666.546875 C 477.738281 664.292969 475.335938 662.492188 473.984375 660.242188 L 475.1875 659.789062 C 473.984375 658.890625 472.785156 657.238281 473.234375 656.035156 C 472.933594 656.1875 472.183594 656.335938 471.882812 656.789062 C 469.632812 656.335938 472.933594 655.585938 471.285156 655.136719 C 471.734375 655.285156 472.183594 655.4375 472.636719 655.136719 L 469.332031 653.035156 C 470.082031 652.433594 470.683594 649.582031 469.183594 648.679688 C 468.730469 648.980469 468.28125 649.730469 468.429688 650.03125 L 467.53125 649.429688 L 469.03125 647.628906 L 466.628906 647.480469 L 468.128906 646.578125 C 467.230469 645.828125 464.976562 646.726562 464.675781 645.828125 C 464.078125 642.375 464.976562 642.675781 465.429688 639.972656 C 462.125 641.324219 463.925781 636.667969 461.523438 637.121094 C 462.726562 633.214844 459.574219 629.613281 459.421875 625.410156 L 459.875 625.707031 C 461.074219 623.757812 456.871094 624.355469 457.171875 622.253906 L 457.769531 622.707031 C 459.121094 620.003906 457.171875 615.949219 455.667969 613.398438 C 456.121094 613.996094 457.320312 613.699219 457.171875 612.945312 C 456.570312 612.195312 454.617188 613.546875 455.367188 612.046875 C 455.667969 612.496094 456.417969 612.195312 456.570312 611.894531 C 455.96875 611.445312 455.519531 610.84375 454.917969 610.242188 C 456.570312 606.492188 458.820312 602.886719 459.273438 598.984375 C 460.171875 598.53125 460.472656 599.285156 460.925781 599.734375 C 461.675781 597.03125 461.824219 593.730469 463.175781 591.175781 L 464.976562 592.078125 C 465.730469 591.027344 462.875 589.523438 465.429688 589.222656 C 465.878906 589.074219 464.675781 590.125 465.277344 591.175781 C 468.128906 590.125 464.675781 588.773438 466.628906 586.820312 L 467.832031 588.925781 C 470.082031 588.472656 468.582031 586.523438 468.128906 585.019531 C 468.28125 583.070312 469.480469 583.519531 470.683594 584.121094 C 471.882812 584.570312 473.234375 585.320312 474.136719 583.367188 C 473.984375 582.019531 473.085938 582.019531 473.085938 580.816406 C 475.9375 579.914062 475.488281 578.265625 478.640625 577.8125 C 481.191406 580.515625 477.289062 578.265625 479.839844 580.816406 L 477.589844 580.816406 C 479.992188 581.867188 476.238281 581.867188 477.441406 583.667969 C 478.039062 583.667969 478.640625 583.070312 479.390625 582.316406 C 479.992188 581.566406 480.742188 580.667969 481.492188 580.214844 C 481.945312 581.71875 479.691406 580.964844 481.042969 582.617188 C 481.191406 582.316406 481.492188 582.019531 481.644531 581.867188 C 481.492188 582.316406 481.644531 582.917969 481.191406 583.070312 C 481.945312 584.421875 482.09375 582.917969 482.84375 582.617188 C 482.695312 581.867188 482.394531 580.816406 481.945312 579.765625 C 481.945312 579.914062 482.09375 580.066406 482.242188 580.214844 C 482.84375 578.863281 484.046875 578.566406 485.246094 578.414062 C 486.449219 578.113281 487.648438 578.113281 488.550781 577.363281 C 488.25 577.8125 488.550781 577.964844 488.550781 578.265625 C 489.75 578.265625 491.101562 576.460938 493.054688 576.3125 C 493.65625 577.664062 491.851562 579.464844 494.40625 579.464844 C 495.304688 578.414062 494.707031 575.863281 496.957031 576.761719 C 496.957031 576.761719 496.355469 576.761719 495.90625 577.0625 C 495.457031 577.363281 495.15625 577.664062 495.457031 578.265625 C 497.707031 578.113281 496.058594 578.863281 497.109375 580.964844 C 498.757812 579.765625 498.609375 582.46875 500.109375 579.914062 C 499.660156 581.867188 499.960938 581.117188 500.261719 583.070312 C 500.710938 581.417969 503.113281 583.070312 504.164062 581.566406 C 503.261719 583.519531 500.863281 582.46875 500.710938 585.171875 C 502.363281 584.570312 504.164062 585.621094 505.964844 584.121094 C 506.265625 585.019531 505.816406 586.070312 506.566406 587.121094 C 506.566406 586.820312 505.964844 586.972656 505.816406 586.972656 C 507.167969 587.273438 508.066406 588.472656 508.96875 589.523438 C 509.871094 590.574219 510.769531 591.476562 512.273438 591.328125 C 510.621094 591.925781 511.222656 593.128906 511.519531 594.179688 C 511.820312 595.230469 512.121094 596.132812 510.320312 595.832031 C 510.46875 596.28125 511.070312 596.730469 511.671875 597.03125 C 512.273438 597.480469 512.871094 597.78125 513.171875 597.933594 C 510.621094 598.53125 513.171875 600.636719 511.671875 601.988281 C 512.871094 602.285156 512.871094 603.488281 513.171875 604.539062 C 513.472656 604.386719 513.773438 604.089844 513.625 603.488281 C 513.921875 603.9375 514.824219 603.636719 515.425781 603.636719 C 516.777344 604.839844 516.777344 602.886719 517.675781 606.039062 C 516.777344 602.738281 520.378906 604.089844 518.429688 600.035156 L 517.675781 600.035156 L 519.628906 599.132812 L 519.480469 599.132812 C 520.230469 598.683594 520.078125 598.234375 522.179688 598.832031 C 522.03125 599.433594 521.582031 600.035156 521.582031 600.636719 C 523.382812 600.933594 522.179688 598.234375 523.082031 597.332031 C 523.832031 598.382812 522.480469 598.382812 523.832031 599.433594 C 524.582031 599.132812 524.433594 597.933594 524.882812 597.183594 L 525.335938 597.78125 C 527.886719 597.78125 523.683594 594.480469 526.386719 595.53125 C 526.085938 595.230469 525.933594 594.78125 525.632812 594.480469 C 526.535156 594.628906 528.335938 595.078125 527.886719 596.429688 C 528.488281 595.980469 528.789062 595.078125 528.488281 594.179688 C 527.4375 593.578125 527.585938 594.179688 526.535156 593.128906 L 528.488281 590.875 C 528.789062 590.726562 528.636719 591.625 528.335938 591.777344 C 530.890625 592.378906 531.640625 590.726562 532.992188 589.375 C 534.191406 587.875 535.695312 586.371094 538.246094 587.722656 C 537.34375 586.820312 538.097656 586.671875 538.097656 585.769531 C 539.449219 585.621094 541.097656 584.570312 542.449219 584.871094 L 542.449219 585.769531 C 544.851562 583.667969 546.652344 582.167969 548.605469 582.019531 C 548.605469 581.71875 548.90625 583.21875 548.605469 583.519531 C 549.65625 581.566406 552.359375 585.921875 552.058594 582.769531 L 551.457031 582.617188 C 552.960938 582.617188 554.3125 582.019531 555.8125 581.117188 C 557.3125 580.367188 558.816406 579.765625 560.316406 579.464844 C 561.066406 581.265625 558.515625 579.765625 559.265625 581.867188 C 561.367188 582.46875 563.46875 580.816406 565.722656 581.71875 C 565.273438 581.867188 565.421875 582.167969 565.273438 582.316406 C 567.375 583.667969 565.121094 580.367188 567.074219 580.816406 C 566.921875 581.71875 566.921875 582.019531 567.523438 582.46875 L 568.273438 580.964844 C 568.273438 581.265625 568.125 582.316406 567.824219 582.769531 C 568.273438 581.867188 569.175781 581.71875 570.074219 581.71875 C 570.976562 581.71875 571.726562 581.867188 572.179688 580.964844 C 572.179688 581.417969 571.425781 583.070312 571.578125 583.820312 C 572.328125 584.570312 573.378906 583.96875 574.429688 583.519531 C 574.730469 584.871094 576.53125 585.171875 576.082031 585.320312 C 577.582031 586.523438 576.984375 584.570312 579.234375 584.121094 C 578.933594 583.667969 578.484375 583.21875 578.035156 582.769531 L 581.488281 583.667969 L 579.535156 583.96875 C 580.285156 585.019531 583.136719 584.421875 584.941406 585.171875 C 585.089844 584.871094 585.089844 584.421875 585.242188 584.121094 L 588.09375 584.570312 C 588.695312 584.871094 588.542969 585.171875 588.542969 585.472656 Z M 462.125 599.882812 C 462.277344 599.433594 462.277344 599.285156 462.425781 599.132812 C 462.277344 599.285156 462.277344 599.585938 462.125 599.882812 Z M 462.574219 602.4375 C 462.726562 602.136719 462.277344 601.835938 461.675781 601.6875 C 461.523438 602.136719 461.375 602.738281 461.222656 603.039062 C 461.675781 602.738281 462.277344 602.136719 462.574219 602.4375 Z M 512.871094 608.742188 C 513.023438 608.59375 513.171875 608.441406 513.324219 608.140625 C 513.023438 607.992188 512.574219 607.691406 512.273438 607.84375 C 512.421875 608.140625 512.574219 608.441406 512.871094 608.742188 Z M 513.324219 604.6875 C 513.472656 604.988281 513.625 605.140625 513.625 605.289062 C 513.625 604.988281 513.773438 604.839844 513.921875 604.6875 C 513.773438 604.6875 513.625 604.6875 513.324219 604.6875 Z M 512.421875 606.339844 C 513.171875 606.789062 513.324219 606.039062 513.773438 606.191406 C 513.625 606.039062 513.625 605.738281 513.625 605.589844 C 513.472656 605.890625 513.023438 606.039062 512.421875 606.339844 Z M 511.972656 606.640625 C 512.273438 607.691406 512.871094 607.542969 513.625 607.390625 C 513.625 607.242188 513.625 607.089844 513.625 606.789062 C 513.171875 606.492188 512.273438 606.941406 511.972656 606.640625 C 511.972656 606.492188 511.972656 606.640625 511.972656 606.640625 Z M 578.632812 592.675781 C 578.632812 591.625 575.78125 593.578125 577.132812 591.777344 C 576.984375 591.777344 576.230469 592.226562 575.632812 592.675781 C 575.933594 592.226562 575.332031 592.226562 575.179688 592.226562 C 574.878906 592.078125 574.730469 592.078125 574.730469 591.476562 C 574.730469 591.925781 574.429688 592.378906 573.53125 592.675781 C 574.730469 591.777344 573.980469 591.625 574.128906 590.875 L 573.679688 591.476562 C 573.828125 590.726562 574.28125 590.574219 574.730469 590.425781 C 574.582031 590.574219 574.429688 590.875 574.730469 590.875 C 575.480469 590.574219 577.582031 588.324219 576.53125 587.574219 C 574.878906 587.875 574.28125 589.675781 573.980469 590.277344 C 573.679688 589.824219 573.078125 590.574219 572.628906 591.175781 C 572.476562 591.476562 572.328125 591.777344 572.179688 592.078125 C 572.027344 592.226562 572.179688 592.226562 572.027344 592.226562 C 571.878906 592.226562 571.726562 592.078125 571.578125 591.925781 C 571.277344 591.777344 570.527344 588.773438 569.324219 588.324219 C 568.425781 589.824219 570.675781 589.675781 569.777344 591.027344 C 569.023438 588.925781 567.824219 589.523438 566.773438 590.125 C 565.570312 590.875 564.519531 591.777344 563.167969 590.726562 L 563.46875 588.773438 C 562.871094 588.625 562.269531 588.625 561.519531 588.773438 L 562.417969 589.824219 C 561.820312 590.277344 560.316406 589.976562 560.765625 588.472656 C 559.417969 590.125 559.117188 589.222656 557.765625 588.925781 C 559.117188 588.925781 557.765625 589.222656 558.664062 588.023438 C 557.015625 587.273438 557.015625 588.023438 556.113281 588.625 C 556.113281 587.875 555.511719 586.972656 555.0625 586.972656 C 554.3125 588.324219 552.507812 588.324219 551.457031 589.523438 L 551.308594 588.925781 C 550.257812 589.675781 549.054688 589.375 547.707031 589.375 C 546.355469 589.375 545.152344 589.675781 544.402344 590.875 C 544.402344 590.875 544.402344 590.875 544.253906 591.027344 L 544.402344 591.027344 C 545.902344 592.527344 543.199219 592.976562 542.902344 593.878906 C 542.601562 593.578125 542.148438 592.828125 541.851562 592.976562 C 542.601562 594.628906 541.398438 594.179688 541.550781 595.078125 C 540.648438 594.929688 540.648438 593.128906 539.597656 593.878906 C 539.148438 594.328125 539.597656 595.078125 539.898438 595.679688 C 539.296875 595.078125 538.097656 594.78125 537.34375 594.929688 C 537.34375 594.480469 537.945312 594.78125 538.097656 594.628906 C 537.796875 593.730469 537.496094 594.328125 536.894531 593.277344 C 536.292969 593.429688 537.496094 594.78125 536.445312 594.628906 L 536.445312 593.128906 C 535.996094 592.976562 535.84375 593.730469 535.84375 593.878906 C 536.144531 593.277344 535.394531 592.226562 534.792969 591.476562 C 533.59375 593.429688 536.445312 594.78125 537.046875 596.28125 C 534.945312 596.28125 534.792969 598.683594 533.742188 599.433594 L 532.992188 597.933594 C 532.542969 598.53125 532.542969 598.984375 532.691406 599.734375 C 532.390625 599.882812 532.089844 600.183594 531.941406 600.335938 C 532.089844 599.433594 531.941406 598.984375 531.191406 597.933594 C 530.589844 598.984375 529.089844 599.734375 530.289062 601.535156 L 530.140625 601.234375 C 528.488281 601.535156 525.933594 603.1875 525.484375 602.738281 C 524.882812 604.386719 522.632812 604.988281 524.132812 606.492188 C 523.832031 607.390625 520.378906 606.492188 522.03125 608.742188 C 520.230469 608.742188 521.582031 608.441406 520.53125 607.089844 C 518.726562 607.089844 520.980469 610.242188 518.128906 608.742188 C 518.128906 610.394531 518.878906 608.894531 519.628906 610.09375 C 517.078125 608.59375 517.675781 611.746094 515.726562 612.046875 C 516.476562 613.097656 516.625 611.894531 517.226562 613.398438 C 516.625 612.945312 516.324219 613.246094 516.027344 613.546875 L 517.527344 614.597656 C 516.027344 614.148438 514.523438 613.847656 513.023438 613.546875 C 513.921875 616.25 515.875 614.75 515.425781 617.300781 L 515.273438 617.152344 C 513.324219 617 515.875 619.402344 513.921875 620.453125 C 514.523438 620.003906 513.171875 619.851562 512.871094 619.554688 L 513.171875 620.753906 C 513.171875 620.605469 513.023438 620.605469 512.722656 620.605469 C 511.070312 620.902344 513.171875 621.503906 511.519531 622.105469 C 511.371094 621.355469 510.019531 621.054688 509.269531 621.203125 C 509.71875 621.953125 510.320312 622.707031 510.769531 623.304688 L 508.519531 621.953125 C 507.917969 623.457031 511.222656 626.460938 507.617188 626.460938 L 507.46875 625.707031 C 506.867188 625.558594 505.066406 625.707031 505.964844 627.058594 C 506.117188 627.359375 507.015625 627.660156 507.46875 627.660156 C 507.316406 627.808594 507.167969 627.960938 507.015625 628.109375 C 505.367188 627.511719 505.515625 625.410156 505.367188 624.058594 C 505.964844 624.65625 506.117188 625.707031 507.167969 625.558594 C 506.867188 624.355469 506.117188 623.15625 505.964844 621.804688 C 506.417969 622.40625 507.316406 623.007812 507.917969 623.304688 C 508.96875 622.40625 507.015625 622.105469 507.167969 621.203125 C 507.917969 621.054688 508.367188 621.054688 508.820312 621.355469 C 508.519531 620.152344 508.820312 619.253906 510.019531 618.5 C 510.019531 618.5 510.621094 620.152344 511.820312 619.851562 C 511.820312 618.351562 511.070312 617.300781 510.46875 615.949219 C 508.96875 616.398438 507.917969 616.097656 507.167969 615.347656 C 506.117188 614.597656 505.214844 613.398438 504.164062 612.496094 L 504.316406 611.445312 C 503.5625 610.996094 502.8125 610.996094 502.511719 611.296875 C 501.914062 610.996094 500.863281 608.441406 500.863281 607.992188 C 501.160156 607.390625 502.0625 607.542969 502.8125 607.84375 C 503.5625 608.140625 504.464844 608.59375 505.066406 607.992188 C 504.765625 607.089844 504.464844 606.339844 503.863281 605.738281 L 504.765625 605.890625 C 505.367188 605.589844 504.464844 605.289062 504.164062 605.289062 C 504.914062 605.441406 504.914062 604.988281 505.066406 604.539062 C 505.066406 603.9375 504.765625 603.335938 504.914062 602.886719 L 503.714844 603.335938 C 502.210938 602.4375 502.664062 601.6875 503.414062 600.484375 C 504.015625 599.433594 504.765625 598.082031 503.5625 597.632812 C 502.664062 597.480469 501.914062 597.480469 501.160156 597.480469 L 502.511719 596.28125 C 501.160156 596.132812 499.960938 596.882812 499.808594 595.53125 C 499.660156 592.828125 497.558594 591.175781 495.457031 590.277344 C 493.203125 589.375 491.253906 589.222656 489.152344 588.171875 C 489.152344 588.472656 489.300781 588.625 489.300781 588.773438 C 487.648438 586.671875 485.847656 588.023438 484.796875 589.523438 C 484.195312 590.277344 483.746094 591.175781 483.296875 591.625 C 482.695312 592.078125 482.09375 592.378906 481.042969 591.925781 L 480.894531 591.175781 C 479.542969 592.226562 480.742188 590.425781 479.089844 590.277344 C 479.992188 592.378906 478.039062 592.976562 477.738281 594.328125 C 477.589844 593.878906 477.890625 593.730469 477.890625 593.277344 C 477.441406 592.976562 476.539062 592.078125 476.386719 592.675781 C 477.441406 595.832031 475.636719 597.183594 475.335938 599.132812 C 474.136719 598.382812 472.035156 598.984375 469.632812 598.53125 C 469.933594 598.984375 470.683594 599.882812 471.433594 600.636719 C 470.234375 600.785156 470.683594 601.6875 471.285156 602.4375 C 471.585938 601.835938 471.734375 601.386719 471.882812 601.085938 L 472.035156 601.234375 C 472.035156 601.085938 472.035156 601.085938 472.035156 600.933594 C 472.183594 600.484375 472.183594 600.335938 472.035156 600.335938 C 473.535156 600.484375 472.933594 600.933594 474.4375 601.835938 C 474.136719 602.285156 473.988281 603.488281 472.933594 603.039062 C 472.785156 603.335938 472.484375 603.488281 472.035156 603.636719 C 472.183594 603.9375 472.183594 604.238281 472.035156 604.386719 L 471.882812 604.238281 C 471.585938 604.238281 471.433594 604.238281 471.285156 604.238281 C 470.683594 604.6875 470.832031 605.441406 471.285156 606.339844 C 471.734375 607.242188 472.484375 607.992188 472.785156 608.59375 C 470.984375 607.242188 470.382812 608.140625 468.882812 607.84375 C 469.03125 607.992188 469.332031 606.789062 469.933594 605.441406 C 469.78125 605.441406 469.480469 605.441406 468.882812 605.289062 C 466.929688 606.039062 469.480469 607.84375 467.980469 609.492188 C 467.832031 609.34375 467.53125 609.042969 466.929688 609.042969 C 466.328125 609.644531 467.378906 610.542969 468.28125 610.84375 C 466.78125 610.695312 465.429688 612.195312 466.027344 612.945312 C 467.230469 613.699219 467.832031 613.546875 467.53125 614.75 L 466.480469 614.148438 C 465.578125 615.5 467.679688 615.347656 467.230469 616.25 C 467.230469 615.949219 466.480469 615.949219 466.179688 616.25 C 466.78125 617.75 467.378906 617.75 469.632812 618.5 L 467.980469 618.5 C 469.03125 619.703125 471.433594 621.503906 469.183594 621.953125 C 472.484375 620.902344 471.433594 624.058594 471.734375 625.109375 C 471.585938 624.808594 470.832031 624.957031 470.53125 624.957031 C 473.386719 626.460938 471.882812 629.3125 472.933594 631.414062 L 470.832031 632.765625 C 471.433594 633.964844 476.089844 632.164062 476.539062 633.367188 L 475.1875 633.515625 C 476.539062 635.46875 476.839844 636.367188 477.441406 638.320312 L 475.9375 639.070312 C 476.988281 639.371094 477.441406 640.121094 478.492188 640.273438 C 475.789062 643.875 483.746094 644.625 481.644531 649.582031 L 484.347656 647.929688 C 484.945312 648.980469 486.296875 649.730469 484.796875 651.683594 L 484.644531 651.382812 C 482.695312 652.734375 485.246094 652.433594 485.246094 653.335938 C 485.847656 653.632812 487.347656 653.183594 487.5 652.433594 C 488.097656 655.886719 492.304688 658.890625 491.253906 662.191406 C 493.953125 664.292969 497.558594 664.894531 499.359375 668.199219 L 499.058594 668.347656 C 499.359375 669.550781 499.960938 672.253906 497.707031 673.601562 C 498.609375 674.503906 500.109375 674.953125 501.460938 675.554688 C 502.210938 676.003906 502.511719 675.855469 502.664062 675.855469 C 502.8125 675.855469 502.964844 676.003906 502.8125 676.304688 C 502.511719 676.457031 502.210938 676.757812 502.0625 676.90625 C 501.761719 677.507812 502.8125 676.90625 503.113281 676.605469 C 503.113281 676.757812 502.8125 677.207031 502.511719 677.507812 C 502.0625 678.558594 502.964844 677.355469 503.265625 677.207031 L 502.664062 678.109375 C 502.511719 678.859375 502.511719 679.308594 502.8125 679.457031 C 503.113281 679.308594 503.863281 678.257812 504.164062 677.65625 C 504.464844 677.054688 504.613281 676.605469 504.914062 676.605469 C 504.914062 676.90625 505.066406 677.957031 505.214844 678.40625 C 505.214844 676.757812 505.214844 676.15625 505.367188 675.707031 C 505.367188 675.554688 505.367188 675.554688 505.515625 675.40625 C 505.667969 675.253906 505.964844 675.105469 506.117188 674.953125 C 506.566406 674.65625 506.867188 674.355469 507.015625 674.054688 L 506.867188 675.40625 C 507.917969 672.550781 510.171875 677.054688 511.371094 674.203125 L 509.269531 673.453125 C 510.320312 673.453125 510.769531 672.550781 509.871094 671.5 C 511.371094 671.800781 511.070312 673.304688 512.722656 672.703125 C 513.171875 673.304688 511.972656 673.902344 513.023438 674.503906 L 516.175781 675.105469 C 516.324219 675.105469 516.324219 675.105469 516.476562 675.105469 L 516.324219 675.105469 C 516.476562 675.253906 516.777344 675.105469 517.378906 674.503906 C 515.273438 671.5 518.878906 673.304688 516.027344 670.902344 C 518.726562 668.949219 522.332031 669.097656 523.683594 666.097656 C 526.835938 668.347656 528.1875 662.644531 530.890625 666.398438 C 532.242188 665.34375 532.691406 663.84375 532.242188 661.742188 C 531.789062 661.742188 531.789062 662.34375 531.640625 662.792969 C 531.191406 661.59375 532.542969 660.242188 533.140625 659.640625 C 532.992188 661.140625 532.390625 662.945312 532.691406 664.894531 C 533.59375 663.695312 534.042969 660.839844 534.191406 659.941406 L 535.996094 661.441406 C 535.84375 659.339844 538.097656 662.042969 537.496094 659.488281 L 536.894531 659.191406 C 538.695312 657.6875 537.195312 656.035156 538.398438 654.234375 L 538.996094 654.984375 C 539.746094 654.6875 538.996094 652.433594 540.949219 653.335938 L 540.046875 654.386719 C 541.25 655.4375 542.601562 655.136719 543.5 655.4375 C 544.253906 654.085938 542 653.183594 542.300781 652.582031 C 543.652344 653.484375 542.902344 653.035156 543.652344 654.535156 C 544.402344 653.035156 545.453125 650.78125 544.851562 648.679688 C 545.152344 648.832031 545.304688 649.128906 545.304688 649.128906 C 546.65625 647.929688 545.601562 645.078125 547.253906 645.078125 L 547.253906 645.527344 C 549.957031 645.976562 547.855469 641.472656 551.007812 643.574219 C 551.910156 643.574219 549.957031 644.625 552.058594 645.078125 C 554.3125 644.175781 550.40625 641.921875 552.359375 641.171875 C 552.058594 641.324219 552.359375 641.324219 552.511719 641.625 C 553.261719 640.574219 554.011719 638.921875 554.613281 637.570312 C 558.214844 637.871094 557.164062 632.765625 561.21875 633.066406 C 559.714844 632.914062 560.167969 631.863281 559.714844 631.414062 C 559.714844 631.414062 560.015625 631.714844 560.167969 631.714844 C 560.617188 631.113281 559.714844 630.363281 559.417969 629.914062 C 560.617188 630.0625 559.417969 627.511719 560.316406 627.660156 C 559.566406 627.210938 560.167969 626.910156 560.46875 626.308594 C 560.617188 627.960938 561.667969 627.511719 562.570312 628.710938 C 563.921875 627.210938 560.765625 624.957031 562.269531 623.457031 L 564.222656 623.15625 C 562.269531 621.804688 564.070312 620.605469 563.167969 620.304688 C 563.921875 620.304688 564.671875 620.152344 565.570312 620.753906 C 565.421875 619.703125 567.074219 619.253906 566.023438 618.351562 L 565.121094 618.800781 C 567.074219 617 564.671875 614.148438 566.921875 613.097656 L 570.078125 614.597656 C 571.878906 613.996094 569.476562 611.59375 571.726562 611.445312 C 570.527344 611.296875 570.828125 611.59375 570.078125 610.394531 C 569.625 610.695312 570.078125 611.894531 569.777344 612.644531 C 569.324219 611.894531 569.023438 610.996094 568.574219 610.242188 C 568.574219 611.144531 568.425781 612.195312 568.273438 613.097656 C 567.523438 611.445312 567.824219 611.746094 566.324219 611.59375 C 566.023438 609.644531 568.574219 610.695312 567.972656 608.742188 C 568.574219 608.441406 569.625 609.492188 570.527344 609.191406 C 569.925781 607.390625 573.828125 607.691406 572.628906 606.039062 C 573.078125 605.890625 572.476562 606.640625 573.230469 606.789062 C 573.230469 605.890625 573.679688 605.289062 572.777344 604.6875 L 572.179688 605.289062 C 572.476562 604.6875 571.277344 604.089844 572.476562 603.1875 C 572.027344 602.136719 570.527344 601.234375 570.226562 601.988281 C 570.078125 601.535156 571.277344 601.234375 572.179688 601.835938 C 572.929688 599.882812 569.023438 599.734375 571.128906 598.382812 C 571.128906 598.53125 571.277344 598.683594 571.578125 598.683594 C 571.878906 598.382812 572.027344 598.234375 572.027344 597.933594 C 572.328125 598.984375 574.730469 598.082031 573.53125 599.585938 C 575.332031 600.035156 574.429688 598.234375 575.332031 597.933594 C 574.28125 597.03125 572.777344 597.183594 572.027344 596.582031 C 572.628906 596.730469 572.628906 596.582031 572.929688 596.582031 C 572.476562 596.582031 572.027344 596.429688 571.425781 596.429688 C 571.425781 596.429688 571.425781 596.429688 571.277344 596.28125 C 571.425781 596.28125 571.578125 596.28125 571.578125 596.429688 C 571.726562 596.429688 572.328125 596.429688 572.929688 596.132812 C 573.378906 595.980469 573.679688 595.679688 573.078125 595.53125 C 573.679688 595.378906 574.878906 595.679688 575.78125 595.078125 C 575.78125 593.277344 577.28125 593.578125 578.632812 592.675781 Z M 473.535156 601.535156 C 473.535156 601.835938 473.535156 601.988281 473.386719 602.285156 C 473.6875 602.4375 473.988281 602.4375 473.988281 601.988281 C 473.835938 601.835938 473.535156 601.6875 473.386719 601.386719 C 473.386719 601.535156 473.386719 601.535156 473.535156 601.535156 Z M 563.019531 648.078125 C 563.019531 648.078125 563.019531 647.929688 563.019531 647.777344 C 563.019531 647.929688 563.019531 648.078125 563.019531 648.078125 Z M 572.027344 595.078125 C 572.027344 595.078125 571.878906 595.078125 571.878906 595.078125 C 571.878906 595.078125 572.027344 595.078125 572.027344 595.078125 Z M 507.617188 626.757812 C 507.617188 626.757812 507.46875 626.910156 507.46875 626.910156 C 507.617188 626.910156 507.617188 626.910156 507.617188 626.757812 Z M 489.601562 588.171875 C 489.601562 588.171875 489.75 588.324219 489.75 588.324219 C 489.75 588.171875 489.601562 588.171875 489.601562 588.171875 Z M 572.628906 596.429688 C 572.628906 596.582031 572.628906 596.730469 572.628906 596.882812 C 572.777344 596.582031 572.777344 596.582031 572.628906 596.429688 Z M 468.132812 615.5 C 468.132812 615.5 468.132812 615.648438 467.980469 615.648438 C 468.132812 615.648438 468.132812 615.5 468.132812 615.5 Z M 472.484375 600.183594 C 472.335938 600.183594 472.183594 600.183594 472.035156 600.183594 L 472.484375 600.636719 L 472.636719 600.484375 C 472.484375 600.183594 472.484375 600.183594 472.484375 600.183594 Z M 543.953125 590.875 C 543.953125 590.875 544.101562 591.027344 544.101562 591.027344 C 544.101562 591.027344 543.953125 591.027344 543.953125 590.875 Z M 466.78125 647.929688 L 467.078125 647.777344 L 466.628906 647.777344 Z M 526.835938 594.328125 C 526.6875 594.179688 526.535156 594.179688 526.386719 594.179688 C 526.386719 594.179688 526.535156 594.328125 526.835938 594.328125 Z M 520.832031 599.132812 L 519.628906 599.433594 C 520.230469 599.285156 520.53125 599.132812 520.832031 599.132812 Z M 516.175781 602.886719 C 516.324219 603.1875 516.476562 603.335938 516.625 603.488281 Z M 583.589844 607.691406 C 583.589844 607.691406 583.589844 607.84375 583.589844 607.992188 C 583.589844 608.59375 583.589844 608.292969 583.589844 607.691406 Z M 575.632812 583.667969 C 576.082031 583.519531 576.53125 583.21875 576.984375 583.21875 C 576.53125 582.917969 576.082031 582.769531 575.632812 583.667969 Z M 571.578125 635.917969 Z M 577.132812 583.21875 C 577.582031 583.519531 578.035156 583.820312 578.632812 583.667969 C 578.183594 583.21875 577.582031 583.070312 577.132812 583.21875 Z M 504.164062 625.859375 L 504.015625 626.160156 C 504.164062 626.160156 504.164062 626.160156 504.316406 626.308594 Z M 504.164062 626.160156 C 504.164062 626.308594 504.316406 626.460938 504.316406 626.460938 C 504.316406 626.460938 504.316406 626.308594 504.164062 626.160156 Z M 504.613281 627.359375 L 504.316406 626.609375 C 504.316406 626.757812 504.164062 627.058594 504.613281 627.359375 Z M 506.566406 618.050781 C 506.71875 618.203125 506.867188 618.203125 507.167969 618.351562 Z M 507.917969 615.949219 C 507.617188 616.398438 506.117188 616.851562 506.117188 617.75 L 506.566406 618.050781 C 505.964844 617.300781 508.667969 616.851562 507.917969 615.949219 Z M 518.878906 611.445312 C 518.429688 611.746094 517.976562 612.195312 517.527344 612.644531 C 518.277344 612.644531 519.179688 612.796875 518.878906 613.546875 C 521.730469 612.796875 517.527344 613.097656 518.878906 611.445312 Z M 522.933594 607.691406 C 522.632812 608.59375 523.683594 608.292969 523.832031 608.59375 C 523.832031 607.691406 523.832031 607.542969 522.933594 607.691406 Z M 556.261719 590.574219 C 556.863281 590.277344 556.113281 589.976562 556.113281 589.074219 Z M 562.71875 579.617188 L 562.417969 580.964844 L 563.621094 580.515625 Z M 567.222656 591.777344 L 568.425781 591.328125 L 567.523438 591.625 Z M 554.761719 634.417969 L 556.414062 635.316406 C 556.5625 634.71875 554.910156 633.515625 554.761719 634.417969 Z M 535.394531 658.289062 C 535.996094 657.988281 536.894531 657.988281 537.046875 657.6875 C 536.292969 657.089844 535.242188 657.238281 535.394531 658.289062 Z M 483.746094 646.429688 L 484.644531 646.578125 L 483.59375 645.976562 Z M 338.410156 741.917969 L 339.609375 742.816406 C 340.210938 742.816406 341.113281 742.066406 340.511719 741.464844 Z M 338.710938 738.914062 C 339.308594 738.914062 339.011719 740.414062 340.363281 740.117188 C 341.113281 738.3125 340.363281 736.960938 338.410156 736.210938 C 338.558594 735.761719 339.160156 735.761719 339.609375 735.609375 C 338.109375 735.160156 336.15625 735.160156 334.957031 736.664062 C 337.058594 736.511719 336.609375 737.113281 339.160156 736.960938 C 339.761719 737.714844 339.460938 738.765625 338.710938 738.914062 Z M 225.203125 724.351562 C 225.054688 723.898438 224.902344 723.75 224.753906 723.75 C 224.902344 724.050781 225.054688 724.5 225.203125 724.351562 Z M 225.503906 735.3125 C 225.503906 735.011719 225.503906 734.859375 225.355469 734.710938 C 225.355469 734.859375 225.355469 735.160156 225.503906 735.3125 Z M 264.242188 688.167969 L 262.738281 687.417969 C 262.589844 688.167969 263.488281 688.015625 264.242188 688.167969 Z M 328.5 728.703125 C 328.800781 728.855469 329.101562 729.003906 329.402344 729.003906 L 328.800781 728.554688 C 328.800781 728.554688 328.652344 728.703125 328.5 728.703125 Z M 289.765625 691.621094 L 290.214844 691.769531 C 290.363281 691.621094 290.664062 691.320312 290.816406 691.167969 Z M 306.28125 701.078125 C 306.878906 700.628906 307.332031 700.476562 307.628906 700.628906 C 307.78125 700.328125 307.929688 700.027344 308.082031 699.425781 C 307.78125 699.128906 306.878906 700.628906 306.28125 701.078125 Z M 276.101562 687.714844 C 276.101562 687.417969 276.101562 687.265625 276.101562 687.117188 C 275.953125 687.265625 275.953125 687.417969 276.101562 687.714844 Z M 351.171875 709.9375 C 351.019531 709.9375 351.019531 709.789062 350.871094 709.789062 C 350.871094 709.9375 351.019531 710.085938 351.171875 709.9375 Z M 334.65625 726.300781 L 334.65625 726.003906 C 334.355469 725.851562 334.054688 725.703125 333.753906 725.550781 Z M 232.5625 753.476562 C 232.109375 753.027344 232.261719 753.328125 232.5625 753.476562 Z M 364.234375 857.824219 C 363.933594 858.425781 363.933594 859.328125 365.734375 860.980469 C 364.234375 859.175781 365.132812 859.175781 365.734375 859.027344 C 366.335938 858.875 366.636719 858.425781 364.835938 856.324219 C 364.984375 856.773438 364.535156 857.226562 364.234375 857.824219 Z M 328.351562 728.253906 C 328.199219 728.105469 328.050781 727.953125 327.898438 727.652344 C 328.050781 727.953125 328.199219 728.105469 328.351562 728.253906 Z M 260.9375 784.105469 C 260.785156 784.257812 260.785156 784.40625 260.785156 784.855469 C 260.785156 784.707031 260.785156 784.40625 260.9375 784.105469 Z M 241.71875 760.234375 L 242.019531 760.984375 C 241.871094 760.683594 241.871094 760.382812 241.71875 760.234375 Z M 274.148438 794.464844 C 274.148438 794.316406 274 794.316406 274 794.167969 C 274 794.316406 274.148438 794.464844 274.148438 794.464844 Z M 274.148438 794.464844 C 274.300781 794.617188 274.300781 794.917969 274.75 794.917969 C 274.75 794.765625 274.75 794.765625 274.75 794.617188 C 274.449219 794.765625 274.300781 794.765625 274.148438 794.464844 Z M 286.609375 804.824219 C 286.609375 804.675781 286.609375 804.527344 286.609375 804.375 C 286.460938 804.226562 286.3125 804.226562 286.160156 804.074219 Z M 380.898438 679.308594 C 380.449219 679.007812 380.148438 678.558594 379.847656 678.109375 C 380.296875 679.007812 378.496094 680.058594 380.898438 679.308594 Z M 329.25 728.105469 C 328.800781 728.253906 328.652344 728.40625 328.351562 728.253906 C 328.5 728.40625 328.652344 728.554688 328.800781 728.554688 C 329.101562 728.40625 329.25 728.253906 329.25 728.105469 Z M 283.15625 784.707031 C 283.757812 785.308594 284.359375 785.910156 284.960938 786.507812 C 284.507812 786.058594 283.910156 785.457031 283.15625 784.707031 Z M 396.363281 749.273438 L 396.515625 748.671875 C 396.363281 748.824219 396.214844 748.972656 396.363281 749.273438 Z M 290.816406 791.3125 C 290.816406 792.0625 290.964844 792.664062 291.117188 793.113281 C 291.265625 793.113281 291.414062 793.113281 291.566406 792.964844 Z M 299.824219 798.671875 C 299.972656 798.671875 300.125 798.820312 300.125 798.820312 C 300.125 798.671875 299.972656 798.671875 299.824219 798.671875 Z M 231.960938 751.675781 C 232.109375 751.828125 232.261719 751.976562 232.410156 752.125 C 232.261719 751.976562 232.109375 751.828125 231.960938 751.675781 Z M 243.519531 760.683594 C 243.519531 760.683594 243.371094 760.683594 243.519531 760.683594 C 243.371094 760.683594 243.519531 760.683594 243.519531 760.683594 Z M 391.859375 755.878906 C 391.859375 756.179688 391.859375 756.332031 391.859375 756.632812 C 391.859375 756.480469 391.859375 756.179688 391.859375 755.878906 Z M 428.792969 707.984375 L 427.140625 707.386719 C 427.894531 709.9375 428.945312 715.191406 426.691406 714.742188 C 428.492188 714.742188 428.644531 716.242188 428.042969 718.042969 C 427.59375 719.695312 426.542969 721.648438 426.089844 722.699219 C 426.242188 721.949219 425.640625 721.648438 425.339844 721.347656 C 425.941406 726.453125 422.039062 729.90625 420.085938 733.660156 L 417.535156 733.058594 C 416.632812 735.160156 420.6875 738.011719 419.335938 740.117188 L 418.734375 738.765625 C 416.933594 742.816406 415.882812 744.167969 413.929688 747.023438 L 412.429688 746.121094 C 412.578125 747.621094 411.828125 748.824219 411.828125 750.324219 C 409.425781 750.476562 408.523438 753.175781 407.625 756.03125 C 406.722656 758.882812 405.671875 762.035156 402.519531 763.386719 L 405.222656 765.039062 C 404.320312 766.691406 403.871094 769.242188 401.320312 769.09375 L 401.46875 768.792969 C 399.367188 767.589844 400.566406 770.59375 399.667969 771.34375 C 399.515625 772.246094 400.566406 773.746094 401.320312 773.296875 C 397.714844 777.351562 396.515625 785.007812 392.609375 786.960938 C 391.710938 792.214844 392.761719 796.71875 390.507812 801.824219 L 390.207031 801.671875 C 389.15625 803.324219 387.207031 806.628906 384.652344 805.726562 C 383.902344 809.78125 386.605469 813.234375 384.050781 817.589844 L 383.453125 816.238281 C 382.550781 817.289062 383.152344 819.539062 383.300781 819.988281 C 383.152344 820.441406 382.699219 819.988281 382.402344 819.691406 C 381.199219 820.589844 382.402344 821.640625 382.25 822.542969 L 381.5 821.941406 C 378.648438 825.09375 380.296875 832 378.496094 836.503906 C 378.496094 835.605469 377.445312 835.753906 376.84375 835.90625 C 377.898438 837.257812 377.898438 839.207031 377.746094 841.160156 C 377.746094 841.460938 377.445312 842.359375 377.296875 843.113281 C 377.144531 843.863281 376.996094 844.613281 376.695312 845.363281 C 376.394531 846.867188 376.09375 848.066406 375.945312 848.96875 L 375.496094 846.265625 C 375.34375 850.019531 374.292969 851.070312 373.242188 851.820312 C 372.191406 852.722656 371.289062 853.171875 370.988281 857.375 C 371.742188 856.773438 372.492188 856.023438 373.390625 855.273438 C 372.191406 857.675781 371.890625 860.679688 372.941406 861.730469 C 371.289062 864.132812 371.289062 859.328125 369.789062 863.832031 C 369.1875 862.78125 370.390625 859.628906 369.339844 859.628906 L 368.585938 860.226562 C 368.585938 860.527344 368.136719 859.925781 367.988281 859.777344 L 367.238281 859.027344 L 364.382812 856.023438 C 364.234375 855.875 364.234375 855.722656 363.933594 855.574219 L 364.234375 856.023438 C 363.933594 855.574219 363.484375 855.273438 361.980469 854.523438 C 363.03125 859.476562 357.777344 852.121094 360.78125 858.125 C 358.679688 856.925781 356.726562 855.574219 354.773438 854.222656 C 352.972656 852.871094 350.871094 851.371094 350.269531 850.769531 C 348.320312 849.117188 346.367188 847.765625 343.816406 847.164062 C 343.964844 843.113281 335.707031 841.910156 338.558594 838.308594 C 336.308594 836.804688 333.90625 836.355469 331.503906 836.957031 C 331.804688 837.554688 332.703125 837.40625 333.304688 837.554688 C 332.105469 838.15625 329.101562 836.503906 328.050781 835.753906 C 330.152344 835.90625 333.003906 836.65625 335.257812 836.054688 C 332.855469 835.15625 329.101562 834.554688 327.597656 834.253906 L 328.351562 832 C 325.648438 832.300781 327.898438 829.449219 324.898438 830.199219 L 324.898438 830.949219 C 321.742188 828.699219 320.394531 830.5 317.238281 828.847656 L 317.839844 828.097656 C 317.089844 827.046875 314.238281 827.796875 314.386719 825.394531 L 316.941406 826.898438 C 317.691406 825.394531 316.640625 823.742188 316.339844 822.691406 C 314.085938 821.640625 314.085938 824.34375 312.886719 823.894531 C 313.335938 822.390625 313.1875 823.144531 314.835938 822.390625 C 312.285156 821.191406 308.832031 819.539062 305.980469 820.140625 C 305.980469 819.839844 306.28125 819.691406 306.28125 819.691406 C 304.027344 817.738281 300.425781 818.488281 299.671875 816.386719 L 300.273438 816.535156 C 299.671875 813.382812 294.117188 814.585938 296.070312 811.28125 C 295.621094 810.082031 298.023438 812.933594 297.722656 810.382812 C 295.769531 807.378906 293.96875 811.582031 292.167969 808.878906 C 292.464844 809.179688 292.464844 809.03125 292.765625 808.730469 C 290.964844 807.527344 288.414062 805.878906 286.3125 804.675781 C 286.011719 800.472656 278.804688 799.421875 278.503906 794.464844 C 278.503906 796.117188 276.851562 795.066406 276.550781 795.515625 C 276.550781 795.515625 276.851562 795.367188 277.003906 795.066406 C 276.101562 794.167969 275.199219 795.066406 274.449219 795.066406 C 274.449219 793.566406 271.148438 793.566406 271.148438 792.664062 C 270.546875 793.265625 269.945312 792.363281 269.195312 791.613281 C 271.445312 792.515625 270.847656 790.863281 272.496094 790.5625 C 270.246094 788.011719 267.242188 790.710938 265.140625 787.710938 L 264.839844 785.308594 C 262.890625 786.660156 261.238281 783.804688 260.636719 784.40625 C 260.785156 783.507812 260.335938 782.605469 261.386719 781.855469 C 260.035156 781.253906 259.4375 778.851562 258.085938 779.453125 L 258.683594 780.953125 C 256.28125 777.199219 252.078125 777.652344 251.027344 774.046875 L 253.730469 771.796875 C 253.28125 769.242188 249.527344 769.992188 249.976562 767.140625 C 249.527344 768.34375 249.828125 768.34375 248.023438 768.042969 C 248.476562 768.792969 250.128906 769.394531 251.027344 770.445312 L 247.425781 769.542969 L 251.328125 772.394531 C 248.925781 771.796875 249.375 771.644531 248.777344 773.296875 C 246.074219 771.945312 248.023438 769.84375 245.171875 768.792969 C 244.871094 767.742188 246.523438 767.742188 246.375 766.390625 C 244.121094 765.488281 245.171875 762.035156 243.519531 761.285156 C 243.671875 761.433594 243.972656 761.433594 244.121094 761.136719 C 242.921875 760.085938 242.320312 759.183594 241.117188 759.484375 L 241.71875 760.835938 C 241.117188 759.933594 239.765625 760.535156 239.167969 758.28125 C 237.816406 757.683594 235.863281 758.132812 236.765625 759.332031 C 236.164062 759.03125 236.164062 757.382812 237.363281 757.082031 C 235.261719 754.230469 233.3125 757.832031 232.710938 754.078125 C 232.859375 754.230469 233.160156 754.378906 233.3125 754.078125 C 233.160156 753.476562 232.859375 753.027344 232.5625 752.726562 C 234.0625 753.929688 234.0625 750.175781 235.414062 753.328125 C 236.765625 751.976562 234.210938 750.777344 234.210938 749.425781 C 232.261719 748.523438 231.808594 750.625 230.609375 750.324219 C 231.058594 750.023438 230.757812 749.425781 230.457031 748.523438 L 229.707031 750.023438 C 229.257812 749.425781 228.957031 748.671875 228.207031 748.074219 L 229.40625 749.125 C 228.808594 747.472656 229.558594 744.320312 227.003906 742.21875 C 227.90625 742.667969 229.558594 743.570312 229.40625 741.464844 C 227.304688 739.066406 229.707031 740.566406 229.859375 738.464844 C 228.355469 735.3125 227.15625 738.464844 226.40625 733.808594 C 226.253906 733.359375 225.652344 733.960938 225.355469 734.558594 C 225.054688 731.257812 223.550781 729.753906 224.152344 726.453125 C 224.003906 727.953125 223.851562 729.003906 222.800781 727.355469 C 224.003906 727.953125 223.402344 724.5 224.152344 723.148438 L 223.402344 722.847656 C 224.152344 721.796875 224.453125 722.847656 224.753906 723.601562 C 224.453125 723.601562 224.304688 723.898438 224.453125 724.5 C 225.203125 726.003906 227.757812 724.953125 227.90625 722.699219 C 227.15625 720.296875 225.355469 720.746094 224.601562 721.199219 C 225.355469 717.746094 221.300781 717.746094 222.800781 714.292969 C 222.953125 713.390625 226.105469 711.289062 227.15625 709.1875 C 225.953125 707.535156 225.203125 711.890625 224.152344 710.085938 C 226.554688 708.585938 226.707031 706.484375 226.855469 703.933594 C 227.003906 701.378906 227.605469 698.527344 230.457031 696.875 L 231.507812 698.675781 C 232.410156 697.777344 233.3125 696.875 234.210938 695.675781 C 233.460938 695.824219 232.859375 696.125 232.109375 696.425781 C 232.410156 695.824219 233.160156 694.921875 233.910156 694.472656 C 234.664062 694.023438 235.414062 694.171875 235.5625 694.921875 C 236.164062 693.273438 236.765625 692.671875 237.515625 692.222656 C 238.265625 691.769531 239.167969 691.621094 240.519531 691.167969 C 237.964844 692.519531 240.367188 691.019531 239.015625 692.972656 C 242.019531 692.222656 241.871094 691.769531 243.519531 690.417969 C 243.519531 691.167969 244.871094 691.769531 245.472656 691.621094 C 246.675781 689.820312 249.828125 689.367188 252.230469 688.316406 L 252.230469 688.917969 C 256.433594 687.566406 260.785156 690.269531 264.839844 688.917969 C 264.992188 688.917969 264.992188 688.917969 264.992188 688.917969 L 264.691406 688.765625 C 263.339844 686.816406 267.992188 687.714844 269.34375 686.964844 C 269.496094 687.417969 269.644531 688.316406 270.246094 688.46875 C 270.546875 686.664062 271.898438 687.867188 272.648438 687.117188 C 274 687.867188 272.199219 689.21875 274.601562 689.367188 C 275.5 689.367188 275.800781 688.46875 275.800781 687.867188 C 276.101562 688.917969 277.601562 689.820312 278.804688 690.269531 C 278.351562 690.570312 277.753906 689.96875 277.453125 689.96875 C 277.152344 690.871094 278.054688 690.71875 277.753906 691.769531 C 278.804688 692.070312 278.503906 690.269531 279.703125 691.167969 L 278.203125 692.222656 C 278.652344 692.671875 279.554688 692.222656 279.855469 692.222656 C 278.953125 692.371094 278.804688 693.722656 278.652344 694.621094 C 281.957031 694.324219 280.15625 691.167969 280.605469 689.667969 C 283.308594 691.46875 286.160156 690.417969 288.5625 691.019531 L 287.664062 692.371094 C 288.863281 692.519531 289.464844 692.371094 290.0625 691.769531 L 291.867188 692.371094 C 290.664062 692.519531 290.214844 692.972656 289.613281 694.171875 C 291.566406 694.324219 293.96875 695.675781 295.167969 693.871094 L 295.019531 694.171875 C 296.070312 695.074219 297.722656 696.125 299.222656 697.023438 C 300.574219 697.925781 301.625 698.828125 301.324219 699.128906 C 302.675781 699.425781 304.027344 700.179688 305.078125 700.777344 C 306.128906 701.378906 307.03125 701.53125 307.628906 700.628906 C 309.28125 701.078125 309.882812 705.132812 312.285156 703.480469 C 313.1875 705.734375 311.984375 704.082031 310.632812 704.984375 C 311.382812 707.234375 315.136719 705.28125 313.9375 708.285156 C 316.339844 708.734375 313.9375 707.535156 315.289062 706.785156 C 314.085938 709.335938 318.289062 709.636719 319.042969 712.1875 C 320.542969 711.890625 318.742188 710.988281 320.84375 711.136719 C 320.242188 711.589844 320.84375 712.339844 321.144531 712.640625 L 322.644531 711.589844 C 322.195312 713.242188 321.742188 714.742188 321.292969 716.394531 C 325.046875 716.84375 322.945312 713.539062 326.546875 715.792969 L 326.25 715.792969 C 325.796875 717.894531 329.402344 716.84375 330.601562 720.148438 C 330.152344 719.097656 329.703125 720.445312 329.101562 720.597656 L 330.753906 721.347656 C 330.601562 721.347656 330.453125 721.347656 330.453125 721.648438 C 330.453125 722.699219 330.902344 722.847656 331.351562 723 C 331.203125 722.550781 331.203125 722.097656 331.203125 721.648438 L 330.902344 721.5 C 331.050781 721.5 331.203125 721.648438 331.203125 721.648438 C 331.203125 721.347656 331.203125 721.046875 331.203125 720.746094 C 333.15625 716.542969 334.507812 721.199219 336.457031 718.496094 L 336.609375 714.140625 L 337.507812 714.441406 C 338.410156 714.140625 337.507812 713.390625 337.359375 713.089844 C 338.558594 713.992188 339.160156 710.238281 340.0625 708.886719 L 338.710938 708.886719 C 338.257812 703.332031 344.714844 703.78125 345.164062 699.878906 L 344.867188 696.273438 L 346.667969 696.726562 C 346.515625 694.921875 345.617188 693.871094 347.566406 692.070312 C 351.320312 689.21875 354.023438 685.613281 357.175781 682.011719 C 358.679688 680.210938 360.332031 678.558594 362.132812 677.054688 C 363.933594 675.554688 366.035156 674.355469 368.289062 673.601562 C 367.988281 673.304688 367.6875 673.304688 367.085938 673.453125 C 371.742188 673.304688 373.992188 671.199219 376.546875 668.949219 C 379.097656 666.847656 381.949219 664.59375 386.152344 665.945312 L 385.703125 666.695312 C 389.457031 665.796875 385.253906 667.449219 388.105469 668.046875 C 388.257812 666.996094 389.457031 666.398438 390.957031 666.097656 C 392.460938 665.796875 394.113281 665.796875 395.164062 665.496094 C 394.710938 665.945312 393.960938 665.796875 393.359375 666.097656 C 393.8125 666.546875 393.8125 667.898438 395.011719 667.597656 C 397.714844 664.59375 403.269531 665.945312 407.625 666.695312 C 407.625 668.199219 410.328125 670.902344 410.476562 673.902344 C 411.078125 673.601562 412.429688 673.152344 413.480469 672.703125 C 414.082031 674.355469 415.28125 674.503906 416.78125 674.65625 C 415.730469 673.753906 414.832031 673.152344 414.082031 672.550781 C 414.082031 672.550781 414.230469 672.550781 414.230469 672.550781 C 414.082031 672.550781 413.929688 672.402344 413.628906 672.253906 C 412.878906 671.800781 412.429688 671.652344 412.429688 671.800781 C 411.828125 669.699219 413.179688 670.902344 413.929688 669.550781 C 415.132812 670.300781 417.832031 671.953125 417.234375 673.152344 C 417.832031 673.753906 418.132812 674.355469 418.585938 675.105469 C 419.183594 675.253906 419.636719 675.707031 419.9375 676.304688 L 419.636719 676.15625 C 419.484375 676.457031 419.484375 676.605469 419.484375 676.757812 C 420.6875 679.160156 424.890625 681.109375 426.992188 682.910156 C 423.988281 681.710938 425.191406 684.5625 423.6875 685.164062 C 423.839844 685.3125 422.9375 682.761719 420.988281 679.910156 C 420.988281 680.210938 420.835938 680.511719 420.386719 680.808594 C 420.535156 682.460938 421.4375 683.210938 422.339844 684.261719 C 423.390625 685.3125 424.441406 686.515625 424.589844 688.765625 C 424.289062 688.617188 423.839844 688.167969 423.390625 688.617188 C 423.539062 690.117188 424.890625 691.019531 425.941406 691.019531 C 424.589844 691.769531 424.140625 694.921875 425.039062 696.273438 C 426.390625 697.324219 426.992188 697.175781 426.992188 699.578125 L 425.792969 698.527344 C 425.039062 701.078125 427.140625 700.777344 426.691406 702.730469 C 426.691406 702.128906 425.941406 702.128906 425.640625 702.730469 C 426.390625 705.582031 426.992188 705.734375 428.792969 707.984375 Z M 413.628906 685.464844 C 413.929688 686.066406 414.378906 686.515625 414.53125 686.964844 C 414.679688 686.214844 414.378906 685.164062 414.832031 685.164062 C 414.53125 684.863281 413.929688 685.015625 413.628906 685.464844 Z M 411.378906 683.0625 C 411.527344 683.210938 411.828125 683.511719 412.128906 683.664062 C 411.679688 683.363281 411.527344 683.210938 411.378906 683.0625 Z M 414.832031 710.238281 L 415.28125 710.988281 C 416.632812 709.636719 416.933594 707.386719 416.78125 705.28125 C 416.632812 703.03125 415.730469 701.078125 414.980469 699.726562 C 415.582031 700.328125 416.632812 699.878906 416.484375 698.976562 C 415.730469 698.226562 414.082031 699.878906 414.679688 698.375 C 414.980469 698.675781 415.730469 698.375 415.730469 697.925781 C 415.132812 697.476562 414.378906 697.023438 413.78125 696.726562 C 414.378906 692.820312 413.628906 687.714844 410.476562 685.3125 C 410.476562 684.414062 411.226562 684.414062 411.828125 684.113281 C 409.425781 681.710938 405.972656 681.109375 403.421875 680.210938 L 404.019531 678.257812 C 402.667969 677.65625 402.070312 680.660156 401.019531 678.40625 C 400.71875 677.957031 402.21875 678.707031 402.96875 677.957031 C 400.566406 675.554688 400.71875 679.160156 398.164062 678.257812 C 398.617188 677.507812 398.917969 676.90625 399.367188 676.15625 C 397.414062 674.355469 396.664062 676.757812 395.761719 678.109375 C 394.113281 679.160156 393.8125 678.109375 393.210938 676.90625 C 392.609375 675.707031 391.710938 674.355469 389.457031 675.554688 C 388.855469 676.757812 389.757812 677.207031 389.15625 678.40625 C 386.152344 678.109375 386.152344 679.757812 383.152344 679.757812 C 380.75 676.90625 384.652344 679.457031 382.101562 676.757812 L 384.652344 677.054688 C 382.25 675.707031 386.304688 676.15625 385.703125 674.355469 C 384.050781 674.054688 381.949219 676.15625 380.296875 677.507812 C 379.847656 676.003906 382.550781 676.605469 381.050781 674.953125 L 380.148438 675.855469 C 380.296875 675.40625 380.148438 674.804688 380.75 674.652344 C 380 673.453125 379.398438 674.953125 378.496094 675.253906 C 378.648438 676.003906 379.097656 677.054688 379.699219 677.957031 C 379.546875 677.808594 379.546875 677.65625 379.246094 677.507812 C 378.648438 678.859375 377.445312 679.457031 376.246094 680.058594 C 375.195312 680.660156 373.992188 681.261719 373.691406 682.460938 C 373.691406 681.859375 373.390625 681.859375 373.242188 681.710938 C 372.191406 682.3125 372.191406 684.5625 371.289062 685.914062 C 369.9375 685.464844 369.789062 682.910156 368.136719 684.863281 C 368.585938 686.066406 370.839844 687.117188 369.1875 688.46875 C 369.1875 688.46875 369.9375 686.515625 368.585938 686.367188 C 367.535156 688.46875 367.835938 686.367188 365.433594 686.664062 C 365.886719 688.765625 363.332031 687.714844 365.285156 689.96875 C 363.484375 689.066406 364.082031 689.519531 362.132812 689.519531 C 363.632812 690.117188 361.53125 692.519531 363.03125 693.722656 C 361.082031 692.820312 362.582031 690.117188 359.730469 690.117188 C 359.878906 692.070312 358.828125 694.171875 360.628906 695.824219 C 359.578125 696.273438 358.679688 695.972656 357.628906 697.175781 C 357.929688 697.023438 357.628906 696.574219 357.628906 696.273438 C 357.328125 699.277344 353.875 701.828125 355.527344 704.53125 C 352.824219 702.28125 352.371094 709.335938 350.570312 706.035156 C 350.121094 707.085938 350.570312 709.335938 350.871094 710.085938 C 348.621094 708.734375 348.917969 712.339844 346.96875 712.789062 C 348.019531 713.992188 346.667969 715.644531 346.96875 717.292969 C 346.96875 716.695312 346.667969 716.242188 345.917969 716.09375 C 346.367188 717.894531 345.464844 717.144531 343.816406 717.746094 C 343.816406 719.847656 345.765625 718.195312 346.367188 719.847656 C 345.164062 721.199219 344.714844 719.394531 343.664062 719.246094 L 345.015625 722.699219 C 344.566406 723 343.964844 723.148438 343.214844 723.148438 C 343.515625 724.199219 344.265625 725.402344 342.613281 726.152344 L 343.363281 724.050781 L 341.863281 724.351562 L 342.464844 727.355469 C 339.160156 730.054688 337.058594 727.953125 334.65625 726.601562 L 334.804688 724.953125 C 333.90625 724.652344 333.003906 725.402344 332.703125 726.003906 C 332.253906 726.152344 331.804688 725.402344 331.503906 724.199219 C 330.753906 724.199219 330.152344 725.101562 330 725.703125 C 331.054688 725.851562 332.105469 726.003906 333.15625 726.152344 L 330.601562 727.054688 C 331.953125 728.855469 337.207031 729.304688 335.257812 732.308594 C 334.957031 732.007812 334.65625 731.859375 334.207031 731.558594 C 333.753906 732.007812 332.703125 733.507812 334.65625 734.109375 C 335.105469 734.261719 336.007812 733.960938 336.15625 733.660156 L 336.308594 734.558594 C 334.65625 735.011719 332.703125 732.910156 331.203125 731.859375 C 332.105469 731.859375 333.304688 732.609375 333.90625 731.707031 C 332.554688 730.808594 330.753906 730.207031 329.402344 729.304688 C 330.300781 729.457031 331.351562 729.003906 331.953125 728.855469 C 331.503906 726.902344 330.300781 728.554688 329.25 727.652344 C 329.402344 726.902344 329.550781 726.300781 330.152344 726.300781 C 328.5 725.550781 327.597656 724.652344 327 722.699219 C 327 722.699219 329.25 723.449219 329.101562 721.949219 C 326.097656 720.296875 324.144531 721.199219 320.992188 719.695312 C 318.589844 719.394531 317.390625 717.894531 316.339844 716.242188 C 315.289062 714.742188 314.238281 713.242188 312.585938 713.242188 C 311.984375 713.691406 313.484375 715.492188 311.835938 714.742188 C 312.886719 713.691406 311.535156 713.390625 311.835938 712.789062 C 308.980469 713.390625 309.734375 710.839844 307.78125 711.289062 C 308.382812 710.988281 307.628906 709.9375 307.332031 709.035156 C 308.53125 707.683594 305.828125 707.234375 309.734375 706.632812 C 305.828125 707.386719 305.378906 703.332031 301.476562 705.882812 L 301.925781 706.632812 L 300.125 704.832031 C 300.425781 705.132812 300.722656 705.433594 301.023438 705.882812 L 299.824219 704.683594 C 299.824219 704.683594 299.972656 704.832031 299.972656 704.832031 L 299.671875 704.53125 L 299.824219 704.683594 C 298.773438 703.78125 298.472656 704.230469 297.722656 701.679688 C 298.621094 701.679688 299.523438 702.128906 300.425781 701.980469 C 299.671875 699.726562 296.820312 701.679688 295.167969 701.078125 C 295.769531 699.878906 297.121094 701.378906 297.269531 699.726562 C 296.21875 698.976562 294.71875 699.425781 293.519531 699.425781 L 293.96875 698.828125 C 291.714844 696.125 291.566406 701.679688 290.214844 698.527344 C 290.0625 698.976562 289.765625 699.277344 289.765625 699.726562 C 289.3125 698.675781 287.8125 696.875 289.914062 696.574219 C 288.863281 696.273438 287.511719 696.425781 286.761719 697.023438 C 287.363281 698.375 287.664062 697.925781 287.511719 699.277344 C 286.160156 698.976562 284.660156 698.828125 283.15625 698.675781 C 282.707031 698.527344 283.757812 698.074219 284.207031 698.226562 C 282.257812 695.675781 279.554688 695.675781 276.851562 695.972656 C 274.148438 695.972656 271.445312 696.425781 268.894531 693.722656 C 269.34375 694.921875 268.292969 694.621094 267.695312 695.523438 C 265.890625 695.074219 263.1875 695.074219 261.386719 694.324219 L 261.988281 693.570312 C 257.484375 694.472656 254.78125 695.972656 252.078125 695.824219 C 252.078125 696.125 251.929688 694.621094 252.378906 694.324219 C 251.476562 695.222656 250.277344 694.621094 249.226562 694.324219 C 248.175781 694.023438 247.273438 693.871094 247.425781 695.375 C 247.726562 695.375 247.875 695.375 248.175781 695.375 C 246.222656 695.675781 244.421875 696.875 243.070312 698.375 C 241.71875 699.878906 240.667969 701.53125 239.765625 703.03125 C 237.816406 702.429688 241.117188 701.378906 239.015625 700.328125 C 236.464844 701.828125 236.164062 705.132812 234.363281 707.535156 C 234.363281 706.933594 234.0625 706.933594 234.0625 706.785156 C 231.660156 709.1875 235.863281 707.234375 234.664062 709.488281 C 233.910156 709.035156 233.613281 709.035156 232.859375 709.785156 L 234.0625 710.988281 C 233.761719 710.988281 232.710938 710.6875 232.410156 710.085938 C 233.910156 711.738281 231.808594 714.890625 233.613281 715.941406 C 233.160156 716.09375 231.507812 715.191406 230.757812 715.492188 C 230.007812 716.84375 230.757812 718.042969 231.359375 718.945312 C 230.007812 719.847656 230.308594 722.550781 230.007812 721.949219 C 229.558594 724.652344 231.058594 722.398438 232.410156 724.050781 C 232.5625 723.300781 232.859375 722.699219 233.011719 722.097656 C 233.160156 723.300781 233.460938 724.351562 233.761719 725.402344 L 232.859375 724.199219 C 232.261719 725.851562 234.210938 727.203125 234.664062 729.003906 L 235.5625 727.953125 C 235.863281 728.554688 236.3125 729.15625 236.765625 729.753906 C 234.664062 730.65625 237.214844 732.457031 234.363281 732.15625 C 234.664062 736.363281 238.417969 737.714844 240.367188 740.566406 C 240.066406 740.265625 239.917969 740.566406 239.46875 740.714844 C 240.066406 742.816406 241.871094 743.417969 243.519531 743.867188 C 242.769531 744.019531 242.320312 743.71875 241.871094 744.019531 C 243.21875 746.269531 243.820312 744.621094 245.921875 746.722656 C 244.722656 746.570312 244.421875 747.023438 244.722656 747.921875 C 245.324219 747.320312 246.222656 747.621094 246.675781 747.921875 C 241.871094 748.671875 247.125 751.675781 243.519531 752.578125 C 244.421875 752.125 248.625 754.679688 249.226562 752.578125 L 248.476562 752.125 C 249.375 751.375 249.675781 752.425781 250.277344 753.027344 C 249.828125 752.878906 249.375 752.578125 249.226562 752.726562 C 252.980469 754.980469 254.632812 759.332031 258.683594 762.1875 C 258.085938 762.1875 256.132812 761.285156 256.734375 762.488281 C 259.4375 766.390625 262.890625 766.992188 266.941406 769.542969 C 264.992188 771.644531 263.039062 766.238281 261.085938 767.890625 C 264.992188 771.042969 269.195312 774.199219 274.300781 776.898438 C 272.796875 781.253906 279.253906 779.453125 279.703125 784.105469 C 280.457031 782.90625 281.957031 783.65625 283.457031 784.855469 C 282.257812 785.308594 283.609375 786.660156 282.707031 786.808594 C 284.808594 786.960938 288.714844 789.660156 286.761719 791.464844 C 288.714844 789.8125 289.3125 793.867188 291.566406 793.265625 C 292.617188 795.367188 295.320312 795.667969 296.820312 797.917969 C 297.121094 796.269531 298.921875 798.371094 300.125 798.820312 C 299.824219 798.820312 299.671875 798.820312 299.523438 798.96875 C 299.222656 800.621094 302.675781 799.871094 303.277344 801.371094 C 303.425781 802.273438 302.226562 802.421875 302.976562 803.175781 C 303.726562 802.273438 307.628906 803.625 307.929688 805.578125 C 307.332031 805.125 307.03125 805.578125 306.429688 805.726562 C 313.1875 808.277344 317.839844 814.585938 325.046875 816.6875 L 322.945312 817.589844 C 325.195312 822.242188 327.148438 816.535156 330 818.789062 C 337.507812 824.945312 344.414062 832.753906 353.125 836.804688 C 354.023438 836.65625 353.125 836.054688 353.421875 835.304688 C 354.023438 835.90625 353.273438 837.40625 354.773438 837.257812 L 355.074219 836.207031 C 355.675781 837.40625 356.578125 838.308594 357.777344 839.058594 L 358.679688 839.660156 C 358.980469 839.808594 359.429688 840.109375 359.429688 840.109375 C 359.578125 840.109375 359.730469 840.109375 359.878906 840.109375 C 360.332031 840.109375 360.179688 839.957031 361.53125 843.261719 C 361.679688 842.8125 361.832031 842.960938 361.980469 842.8125 C 361.980469 842.511719 362.132812 842.511719 362.28125 842.359375 C 362.582031 842.0625 362.882812 841.460938 362.132812 839.507812 C 363.183594 839.359375 363.484375 841.609375 363.933594 840.710938 C 363.785156 840.109375 363.632812 839.660156 363.484375 839.207031 L 363.183594 838.609375 C 363.183594 838.308594 363.03125 838.308594 363.03125 837.855469 L 363.183594 838.15625 C 361.382812 832.902344 369.9375 827.648438 369.488281 821.492188 L 369.640625 821.792969 C 370.238281 822.09375 371.441406 821.339844 371.589844 820.289062 C 371.140625 819.839844 370.691406 820.289062 369.9375 820.742188 C 370.238281 815.484375 370.539062 814.433594 371.589844 810.53125 C 372.042969 812.484375 372.941406 809.332031 374.441406 809.628906 C 373.84375 808.28125 372.792969 809.78125 372.640625 807.226562 C 373.542969 803.925781 375.792969 801.523438 377.144531 798.96875 C 376.246094 797.46875 377.144531 796.117188 375.496094 795.515625 C 376.695312 791.914062 376.695312 789.660156 378.496094 785.308594 L 379.097656 785.457031 C 377.597656 783.507812 381.5 782.003906 380.75 780.804688 C 381.351562 781.253906 381.5 781.703125 382.101562 781.855469 L 382.25 779.601562 C 382.402344 780.804688 384.050781 782.003906 384.953125 780.503906 C 384.203125 778.25 383.902344 780.652344 383 779.300781 L 384.953125 779.453125 C 385.253906 778.101562 383.300781 776.898438 382.25 778.25 C 384.050781 773.898438 384.953125 769.242188 387.054688 765.488281 L 387.957031 766.390625 C 388.40625 763.988281 389.757812 761.136719 391.410156 760.382812 C 391.109375 760.234375 390.808594 759.332031 390.207031 759.484375 C 389.90625 756.480469 391.859375 759.484375 391.859375 757.230469 C 391.859375 757.832031 391.859375 758.433594 392.308594 758.734375 L 393.359375 752.878906 C 394.261719 753.179688 397.566406 751.074219 398.015625 748.671875 C 397.566406 748.375 396.664062 748.671875 396.214844 749.125 L 396.515625 747.472656 L 399.066406 747.472656 L 398.464844 744.621094 L 400.117188 745.519531 C 400.566406 743.867188 398.917969 742.21875 399.667969 741.167969 C 403.121094 737.414062 403.121094 738.613281 406.273438 736.511719 C 403.421875 734.410156 408.976562 731.859375 407.175781 729.90625 C 411.527344 727.203125 412.878906 720.746094 415.28125 715.792969 L 415.429688 716.394531 C 417.683594 713.839844 413.78125 712.488281 414.832031 710.238281 Z M 416.183594 671.5 C 415.882812 671.5 415.582031 671.652344 415.429688 671.953125 C 415.429688 671.953125 415.582031 671.953125 415.582031 671.800781 C 416.183594 672.101562 416.632812 672.402344 416.933594 672.703125 C 417.082031 672.402344 417.082031 671.953125 416.183594 671.5 Z M 242.769531 760.535156 C 243.070312 760.535156 243.21875 760.535156 243.371094 760.683594 C 243.070312 760.535156 242.769531 760.085938 242.769531 760.535156 Z M 426.84375 702.730469 C 426.84375 702.878906 426.84375 702.878906 426.691406 703.03125 C 426.84375 702.878906 426.84375 702.730469 426.84375 702.730469 Z M 336.308594 732.910156 L 336.308594 733.210938 C 336.308594 733.058594 336.308594 733.058594 336.308594 732.910156 Z M 240.21875 740.566406 C 240.21875 740.566406 240.367188 740.714844 240.367188 740.714844 C 240.21875 740.714844 240.21875 740.714844 240.21875 740.566406 Z M 413.480469 672.101562 C 413.328125 672.101562 413.179688 672.101562 413.03125 671.953125 C 413.179688 672.101562 413.179688 672.402344 413.179688 672.550781 C 413.328125 672.550781 413.628906 672.402344 413.78125 672.402344 C 413.78125 672.402344 413.628906 672.253906 413.480469 672.101562 Z M 264.839844 688.46875 C 264.992188 688.46875 264.992188 688.617188 264.992188 688.765625 C 264.992188 688.617188 264.992188 688.617188 264.839844 688.46875 Z M 398.164062 744.019531 L 398.464844 744.167969 L 398.316406 743.570312 Z M 289.765625 699.578125 C 289.765625 699.726562 289.765625 699.878906 289.914062 700.027344 C 289.914062 700.027344 289.914062 699.878906 289.765625 699.578125 Z M 306.878906 709.335938 C 307.179688 709.1875 307.332031 709.035156 307.332031 708.886719 Z M 250.128906 752.878906 C 250.277344 753.027344 250.277344 753.027344 250.425781 753.027344 C 251.179688 753.476562 250.726562 753.179688 250.128906 752.878906 Z M 231.359375 718.945312 C 231.660156 719.394531 231.960938 719.847656 232.109375 720.148438 C 232.261719 719.546875 232.261719 718.945312 231.359375 718.945312 Z M 283.007812 784.558594 L 283.15625 784.707031 Z M 232.109375 721.949219 C 232.410156 721.199219 232.410156 720.746094 232.109375 720.148438 C 231.960938 720.746094 231.808594 721.5 232.109375 721.949219 Z M 333.15625 735.160156 C 333.304688 735.160156 333.304688 735.011719 333.453125 735.011719 L 333.003906 734.710938 Z M 333.453125 735.011719 L 333.90625 735.3125 C 333.753906 735.011719 333.605469 735.011719 333.453125 735.011719 Z M 334.804688 735.761719 L 333.90625 735.160156 C 334.054688 735.460938 334.207031 735.910156 334.804688 735.761719 Z M 326.546875 725.550781 L 325.949219 725.851562 C 326.25 725.851562 326.398438 725.703125 326.546875 725.550781 Z M 324.144531 723.148438 C 324.597656 723.75 324.597656 725.402344 325.648438 726.003906 L 326.097656 725.703125 C 325.046875 726.152344 325.347656 723 324.144531 723.148438 Z M 321.144531 708.886719 C 319.191406 704.984375 320.84375 710.539062 317.839844 707.835938 L 319.941406 710.085938 C 319.941406 709.335938 319.941406 708.136719 321.144531 708.886719 Z M 311.085938 700.628906 C 309.882812 700.628906 309.582031 700.628906 310.332031 701.679688 C 311.984375 702.28125 310.785156 700.929688 311.085938 700.628906 Z M 242.621094 690.117188 L 242.167969 688.617188 C 240.816406 689.519531 242.320312 689.21875 242.621094 690.117188 Z M 237.664062 704.082031 C 238.117188 703.933594 238.566406 703.933594 239.015625 703.78125 L 238.265625 702.582031 C 237.964844 703.03125 237.816406 703.480469 237.664062 704.082031 Z M 224.453125 705.433594 C 224.304688 706.332031 224.152344 707.085938 224.152344 707.984375 C 224.304688 707.386719 224.304688 706.785156 224.453125 706.183594 Z M 283.457031 804.226562 L 284.359375 802.574219 C 283.457031 802.273438 281.957031 803.773438 283.457031 804.226562 Z M 324.296875 831.699219 C 324.296875 832.753906 325.046875 834.101562 326.25 833.804688 C 325.496094 833.050781 324.898438 831.851562 324.296875 831.699219 Z M 405.824219 763.539062 L 406.121094 761.734375 L 405.671875 762.488281 Z M 405.824219 763.539062 " fill-opacity="1" fill-rule="nonzero"/></g></svg>